<?xml version="1.0" encoding="UTF-8"?>
<svg version="1.1" xmlns="http://www.w3.org/2000/svg" width="512" height="512">
<path d="M0 0 C1.28531974 -0.00654048 1.28531974 -0.00654048 2.59660554 -0.0132131 C5.49360758 -0.02423929 8.39014061 -0.01371319 11.28713989 -0.00342751 C13.37474246 -0.00688116 15.46234321 -0.01164374 17.54994011 -0.01760924 C23.30661575 -0.03018906 29.06314312 -0.02391724 34.81981945 -0.01465058 C41.02030149 -0.00788889 47.22075724 -0.01832696 53.42123413 -0.02659035 C64.87262462 -0.03918713 76.32394865 -0.03805637 87.77533883 -0.02985594 C98.3531505 -0.02231801 108.93094474 -0.02033509 119.50875854 -0.02392387 C120.20960842 -0.02415303 120.9104583 -0.02438218 121.63254605 -0.02461828 C124.47731373 -0.02555225 127.32208141 -0.02650745 130.16684907 -0.02749758 C156.86898621 -0.03668065 183.57109305 -0.02834457 210.27322552 -0.01220688 C234.01176659 0.00203061 257.75025939 0.00075675 281.48880005 -0.01358986 C308.14117995 -0.02964352 334.79353307 -0.03602947 361.44591713 -0.02675307 C364.28558985 -0.02579087 367.12526257 -0.02485236 369.9649353 -0.02392387 C370.66416768 -0.02368664 371.36340005 -0.02344941 372.08382128 -0.02320499 C382.65662671 -0.01978834 393.22941282 -0.02379127 403.80221558 -0.03136253 C415.8204332 -0.03992581 427.83858131 -0.037537 439.85679674 -0.0215203 C445.9937797 -0.01361228 452.13066446 -0.01058891 458.26764679 -0.02046776 C463.87823537 -0.02936295 469.48863407 -0.02456781 475.09920526 -0.0085351 C477.13616568 -0.00516523 479.17314193 -0.00693035 481.21009231 -0.01416247 C483.96485886 -0.02319796 486.71896276 -0.01401774 489.47369385 0 C490.27675406 -0.0070235 491.07981427 -0.014047 491.90720963 -0.02128333 C497.22037747 0.03328498 497.22037747 0.03328498 499.72969878 1.70580375 C501.42051303 4.51230988 501.11498106 7.203732 501.11779785 10.43770409 C501.12481781 11.5225571 501.12481781 11.5225571 501.13197958 12.62932634 C501.14397122 15.05924898 501.13445641 17.48861196 501.12503052 19.91853905 C501.12909438 21.65793755 501.13443521 23.39733347 501.14096069 25.13672447 C501.1546622 29.86600039 501.14932398 34.59508045 501.13982344 39.32435989 C501.1322415 44.26774572 501.13926836 49.21111449 501.14398193 54.15450096 C501.14944377 62.45689984 501.14223666 70.75921872 501.12796021 79.06160545 C501.11163288 88.6677512 501.11692108 98.27370594 501.13343942 107.87984705 C501.14704211 116.11939332 501.14897992 124.35888201 501.14112341 132.59843588 C501.13644019 137.52310601 501.13583983 142.44768629 501.14573288 147.37235069 C501.15438258 152.00166667 501.1484173 156.63073579 501.13105011 161.26002502 C501.12707456 162.96162378 501.12823749 164.66324323 501.1348381 166.36483383 C501.14300179 168.68261974 501.13279564 170.99960806 501.11779785 173.31734276 C501.11666677 174.61593979 501.1155357 175.91453682 501.11437035 177.25248528 C500.73684692 180.37752342 500.73684692 180.37752342 499.33635139 182.29539585 C497.27086744 183.69277683 495.98210644 183.75192886 493.49661255 183.74983788 C492.64562988 183.75606667 491.79464722 183.76229546 490.9178772 183.768713 C490.00219971 183.75950325 489.08652222 183.7502935 488.14309692 183.74080467 C486.72849182 183.74155243 486.72849182 183.74155243 485.28530884 183.74231529 C483.29143161 183.73997482 481.29755143 183.73024787 479.30374146 183.71370506 C476.24862296 183.69011435 473.19437709 183.69314413 470.13919067 183.69978905 C468.20298754 183.69421224 466.2667881 183.68710235 464.33059692 183.67830467 C463.41491943 183.67921608 462.49924194 183.68012749 461.55581665 183.68106651 C460.70483398 183.6715345 459.85385132 183.66200249 458.9770813 183.65218163 C458.22890137 183.64757423 457.48072144 183.64296684 456.70986938 183.63821983 C454.73684692 183.37752342 454.73684692 183.37752342 451.73684692 181.37752342 C451.40684692 179.72752342 451.07684692 178.07752342 450.73684692 176.37752342 C443.80684692 176.37752342 436.87684692 176.37752342 429.73684692 176.37752342 C429.07684692 178.35752342 428.41684692 180.33752342 427.73684692 182.37752342 C423.15513774 184.66837801 416.82958214 183.65276242 411.79934692 183.69002342 C410.49803833 183.71902733 409.19672974 183.74803123 407.85598755 183.77791405 C406.61139771 183.78629295 405.36680786 183.79467186 404.08450317 183.80330467 C402.36759277 183.82517845 402.36759277 183.82517845 400.61599731 183.84749413 C397.73684692 183.37752342 397.73684692 183.37752342 395.84011841 181.53841209 C394.73684692 179.37752342 394.73684692 179.37752342 394.73684692 176.37752342 C387.47684692 176.37752342 380.21684692 176.37752342 372.73684692 176.37752342 C372.40684692 178.02752342 372.07684692 179.67752342 371.73684692 181.37752342 C368.98719717 184.12717318 367.4484511 183.62908475 363.59576511 183.63199902 C361.61748182 183.64074731 361.61748182 183.64074731 359.59923321 183.64967233 C358.1215495 183.64603854 356.64386625 183.64221414 355.16618347 183.63821983 C353.60741903 183.64123758 352.04865607 183.64512515 350.48989576 183.6498124 C346.19038612 183.66014986 341.89095932 183.65789606 337.5914427 183.65363181 C332.96082942 183.65117495 328.33023663 183.66016574 323.69963074 183.6676693 C314.62161595 183.68044738 305.54363069 183.68220613 296.46560843 183.67986903 C289.0901054 183.67808919 281.71461137 183.67982832 274.33910942 183.68409348 C273.29116002 183.68468866 272.24321062 183.68528385 271.16350518 183.68589708 C269.03489944 183.68710877 266.9062937 183.68832291 264.77768796 183.68953945 C244.79576605 183.70042696 224.813861 183.69824677 204.83193814 183.69215461 C186.53380087 183.68698426 168.23571681 183.69824185 149.93759007 183.71725283 C131.16913126 183.73660365 112.40069765 183.74489209 93.63222879 183.74112958 C83.08712319 183.73921335 72.5420629 183.74174597 61.99696541 183.75584412 C53.02000072 183.76772384 44.04310921 183.76920129 35.06614358 183.75705395 C30.48253231 183.7511412 25.89905513 183.75013149 21.31545258 183.76205635 C17.1240811 183.7728344 12.93295697 183.76990918 8.74159747 183.75579467 C7.22075271 183.75312527 5.69988907 183.75558376 4.17906273 183.76353053 C2.120328 183.77354607 0.06246832 183.76529398 -1.99623013 183.75225353 C-3.1422811 183.75230855 -4.28833207 183.75236356 -5.46911186 183.75242025 C-8.26315308 183.37752342 -8.26315308 183.37752342 -10.13124055 182.04941767 C-12.00639675 179.27971349 -11.6412351 176.6111459 -11.644104 173.31734276 C-11.64878398 172.59410741 -11.65346395 171.87087207 -11.65828574 171.1257205 C-11.67027737 168.69579787 -11.66076256 166.26643488 -11.65133667 163.8365078 C-11.65540053 162.0971093 -11.66074136 160.35771338 -11.66726685 158.61832237 C-11.68096835 153.88904645 -11.67563013 149.15996639 -11.66612959 144.43068695 C-11.65854765 139.48730112 -11.66557452 134.54393235 -11.67028809 129.60054588 C-11.67574992 121.29814701 -11.66854281 112.99582813 -11.65426636 104.69344139 C-11.63793903 95.08729565 -11.64322724 85.48134091 -11.65974557 75.87519979 C-11.67334826 67.63565352 -11.67528607 59.39616484 -11.66742957 51.15661097 C-11.66274634 46.23194083 -11.66214598 41.30736055 -11.67203903 36.38269615 C-11.68068873 31.75338017 -11.67472345 27.12431106 -11.65735626 22.49502182 C-11.65338071 20.79342306 -11.65454365 19.09180361 -11.66114426 17.39021301 C-11.66930794 15.0724271 -11.6591018 12.75543878 -11.644104 10.43770409 C-11.64297293 9.13910706 -11.64184185 7.84051003 -11.6406765 6.50256157 C-11.26315308 3.37752342 -11.26315308 3.37752342 -10.25600493 1.70580375 C-7.08055545 -0.41070434 -3.68967673 -0.03226961 0 0 Z " fill="#69A8FD" transform="translate(11.263153076171875,-0.37752342224121094)"/>
<path d="M0 0 C0.73452393 -0.00335861 1.46904785 -0.00671722 2.22583008 -0.01017761 C4.62933085 -0.0195964 7.03276128 -0.02162611 9.4362793 -0.02270508 C11.12485278 -0.02592395 12.81342599 -0.02928848 14.5019989 -0.03279114 C18.03307745 -0.03875973 21.56413161 -0.04063338 25.09521484 -0.04003906 C29.59367187 -0.03993757 34.09197062 -0.05358697 38.59039021 -0.07081127 C42.07621462 -0.08199387 45.56200152 -0.08395636 49.04784203 -0.08342934 C50.70503472 -0.08460014 52.36222867 -0.08897066 54.01940346 -0.0967617 C69.22559563 -0.161563 82.57437408 0.32440218 94.3034668 11.01245117 C100.00872411 17.43527693 103.37315385 24.83342238 103.26049805 33.39526367 C103.25147461 34.28729492 103.24245117 35.17932617 103.2331543 36.09838867 C103.21575195 37.1115918 103.21575195 37.1115918 103.19799805 38.14526367 C104.36675476 38.13860184 105.53551147 38.13194 106.73968506 38.12507629 C117.74608602 38.0643006 128.75245301 38.01930803 139.75898361 37.98982716 C145.41776261 37.97416131 151.0764063 37.95290609 156.73510742 37.91894531 C162.19454532 37.88638491 167.65385295 37.86841758 173.11338043 37.86063194 C175.19782818 37.85508249 177.28226868 37.84424595 179.36666107 37.8280735 C182.28292838 37.80634353 185.19865519 37.80329491 188.11499023 37.8046875 C188.97957855 37.79390167 189.84416687 37.78311584 190.73495483 37.77200317 C194.13055311 37.78958593 196.60868057 37.88259327 199.7333374 39.27531433 C201.86215828 41.99320479 201.70599338 43.97523744 201.71557617 47.4050293 C201.72818481 48.69646851 201.74079346 49.98790771 201.75378418 51.31848145 C201.74662459 52.72949773 201.73842066 54.14050904 201.72924805 55.55151367 C201.73194252 56.9973578 201.73582456 58.44320016 201.74084473 59.88903809 C201.74674205 62.91879534 201.73817006 65.9480808 201.71948242 68.9777832 C201.6966918 72.86205853 201.70981376 76.74522844 201.73377228 80.6294632 C201.74822449 83.6149326 201.74362713 86.60013978 201.73326111 89.58561707 C201.73059218 91.01775747 201.73386949 92.44992167 201.74317932 93.8820343 C201.75333329 95.88318428 201.73511322 97.88441768 201.71557617 99.88549805 C201.7123938 101.02450562 201.70921143 102.16351318 201.70593262 103.33703613 C201.19799805 106.14526367 201.19799805 106.14526367 199.7333374 108.01521301 C195.88522391 109.73039295 192.28219403 109.53782614 188.11499023 109.48583984 C187.1975705 109.48627792 186.28015076 109.486716 185.33493042 109.48716736 C182.30469428 109.48507852 179.27501245 109.46174276 176.24487305 109.43823242 C174.14308983 109.43263681 172.04130269 109.42836655 169.93951416 109.42536926 C164.40906969 109.41391778 158.87886178 109.3844478 153.34851074 109.35125732 C147.7046224 109.3205631 142.06069581 109.3068653 136.41674805 109.29174805 C125.34372748 109.25957855 114.27088244 109.20837837 103.19799805 109.14526367 C103.20701645 109.76304687 103.21603485 110.38083008 103.22532654 111.01733398 C103.23234085 111.82783203 103.23935516 112.63833008 103.24658203 113.47338867 C103.25560043 114.27679688 103.26461884 115.08020508 103.27391052 115.90795898 C103.0427715 122.72012548 98.40683807 128.24086396 93.88549805 132.95776367 C80.37475577 145.57964132 65.98389777 146.76792145 48.25268555 146.71166992 C46.23112707 146.71691483 44.20957104 146.72319447 42.1880188 146.73045349 C37.97036137 146.74081172 33.75304234 146.73636015 29.53540039 146.72167969 C24.15103832 146.70446456 18.76774074 146.72804536 13.38349724 146.76316929 C9.21567824 146.78520144 5.04811194 146.78368829 0.88025284 146.77540398 C-1.10432989 146.77458831 -3.08893189 146.78137746 -5.07345963 146.796175 C-25.58101259 146.9257235 -25.58101259 146.9257235 -32.80200195 141.14526367 C-41.81701344 131.95697393 -42.94424264 120.12014159 -42.96313477 107.80834961 C-42.96809967 107.01691055 -42.97306458 106.2254715 -42.97817993 105.41004944 C-42.99267014 102.81657003 -42.99958131 100.22315175 -43.00512695 97.62963867 C-43.00795433 96.73625038 -43.01078171 95.84286209 -43.01369476 94.92240143 C-43.02863372 90.19476532 -43.03789669 85.46715931 -43.04223633 80.73950195 C-43.04771416 75.88684859 -43.071743 71.03447675 -43.10020828 66.18191147 C-43.11894069 62.42239607 -43.12404587 58.66294708 -43.1255722 54.90338898 C-43.1285752 53.11583161 -43.13652289 51.32827475 -43.14975739 49.54076385 C-43.25232899 34.62299768 -42.59008984 21.670417 -31.9855957 10.17651367 C-22.86960003 1.48408952 -12.15914676 0.0351935 0 0 Z " fill="#000000" transform="translate(310.802001953125,365.854736328125)"/>
<path d="M0 0 C1.18409203 -0.0098568 1.18409203 -0.0098568 2.3921051 -0.01991272 C4.99708162 -0.0395728 7.60200053 -0.05129539 10.20703125 -0.0612793 C11.10192261 -0.06535482 11.99681396 -0.06943035 12.91882324 -0.07362938 C17.66056077 -0.09446453 22.40226962 -0.10877423 27.14404297 -0.11816406 C32.01134196 -0.12919047 36.87817902 -0.16355395 41.74531555 -0.20333576 C45.51345595 -0.22964689 49.28148898 -0.23786893 53.04971313 -0.24144554 C54.84204204 -0.2462784 56.63436723 -0.25779659 58.42660522 -0.27648354 C71.12608322 -0.40060898 83.98212418 -0.21401393 94.2421875 8.41918945 C100.63945282 14.74615515 105.75788015 21.53722048 106.12329102 30.81005859 C106.11096436 31.68525146 106.0986377 32.56044434 106.0859375 33.4621582 C106.0715564 34.79259155 106.0715564 34.79259155 106.05688477 36.14990234 C106.04455811 36.81884521 106.03223145 37.48778809 106.01953125 38.17700195 C107.79478935 38.1670092 107.79478935 38.1670092 109.60591125 38.15681458 C120.74506951 38.09606861 131.88419427 38.05106066 143.02348042 38.02156544 C148.75066835 38.00589202 154.47772285 37.98462309 160.20483398 37.95068359 C165.72910567 37.91815005 171.2532488 37.90016157 176.77760887 37.89237022 C178.88800265 37.88681592 180.99838918 37.87597008 183.10872841 37.85981178 C186.05872575 37.83811745 189.00818802 37.83503169 191.95825195 37.83642578 C192.83578629 37.82563995 193.71332062 37.81485413 194.6174469 37.80374146 C200.58197227 37.83435579 200.58197227 37.83435579 202.74325943 39.52682877 C204.69210833 42.04661974 204.40837442 44.18126027 204.42358398 47.32910156 C204.44261024 49.23138771 204.44261024 49.23138771 204.46202087 51.17210388 C204.45996936 52.55785281 204.45698126 53.94360062 204.453125 55.3293457 C204.45768591 56.75037384 204.46299121 58.17139977 204.4690094 59.59242249 C204.47794543 62.57082071 204.47551231 65.54895089 204.46557617 68.52734375 C204.45408965 72.34198561 204.47428918 76.15570135 204.50349331 79.97022152 C204.52185148 82.90509406 204.52156366 85.83974455 204.51585579 88.77466011 C204.5157025 90.1808661 204.52175305 91.58708707 204.53414726 92.99323845 C204.54904387 94.96060988 204.53575704 96.92813354 204.52124023 98.89550781 C204.52107407 100.01452988 204.5209079 101.13355194 204.52073669 102.28648376 C204.01953125 105.17700195 204.01953125 105.17700195 202.55586243 107.54121399 C198.75510955 109.99248134 195.36988363 109.70484568 190.93652344 109.63110352 C189.56039383 109.63197968 189.56039383 109.63197968 188.15646362 109.63287354 C185.12605873 109.63008827 182.09663917 109.59897503 179.06640625 109.56762695 C176.96462542 109.56016615 174.86283763 109.55447246 172.76104736 109.55047607 C167.23051735 109.53520719 161.70040786 109.49591423 156.17004395 109.45166016 C150.52618092 109.4107347 144.88224991 109.39247086 139.23828125 109.37231445 C128.16517987 109.32942147 117.09239054 109.26115469 106.01953125 109.17700195 C106.03047569 110.21025856 106.03047569 110.21025856 106.04164124 111.26438904 C106.04731613 112.16681839 106.05299103 113.06924774 106.05883789 113.99902344 C106.06978233 115.34165504 106.06978233 115.34165504 106.08094788 116.71141052 C105.87718885 124.89138622 100.66514298 132.57424117 95.01953125 138.17700195 C87.12964775 144.01626597 79.86547126 146.4783593 70.14355469 146.4675293 C69.27116653 146.47424652 68.39877838 146.48096375 67.49995422 146.48788452 C64.62621302 146.5068255 61.75270593 146.51078698 58.87890625 146.51293945 C56.87119452 146.51937089 54.86348372 146.52609951 52.85577393 146.53311157 C48.64943267 146.54507518 44.44317347 146.54879342 40.23681641 146.54760742 C34.86590959 146.54740447 29.49553332 146.57468594 24.12475204 146.60915184 C19.97755553 146.63147096 15.83048558 146.6354434 11.68323517 146.63438797 C9.70422796 146.63673717 7.72521689 146.64552205 5.74626923 146.6610527 C-7.99880533 146.75881027 -19.53952886 146.22803123 -29.98046875 136.17700195 C-40.54011614 124.30269967 -40.43929672 110.5053422 -40.37890625 95.4543457 C-40.38093232 93.65938703 -40.38384817 91.86442916 -40.38760376 90.06947327 C-40.39200091 86.32683392 -40.3856801 82.58441087 -40.37158203 78.84179688 C-40.35447928 74.07206245 -40.36435489 69.30283422 -40.38229942 64.53311825 C-40.3931976 60.83281212 -40.38966361 57.13262382 -40.38191605 53.43231392 C-40.37993132 51.67464702 -40.38231173 49.91696902 -40.38935471 48.15931511 C-40.43499217 33.57547415 -39.49916741 21.4284919 -29.1640625 10.2043457 C-20.89778033 2.33885297 -11.13464525 0.04058497 0 0 Z " fill="#010100" transform="translate(307.98046875,200.822998046875)"/>
<path d="M0 0 C1.18956802 -0.0076664 1.18956802 -0.0076664 2.40316772 -0.01548767 C5.00152322 -0.02928539 7.59961047 -0.02843409 10.19799805 -0.02612305 C12.02109371 -0.03001588 13.84418849 -0.03435175 15.6672821 -0.03910828 C19.48085474 -0.04654978 23.29433477 -0.04629463 27.10791016 -0.04101562 C31.96965526 -0.03522928 36.83101836 -0.05214191 41.69270039 -0.0753603 C45.45647865 -0.09016908 49.22016649 -0.09095957 52.98396873 -0.08785057 C54.77513573 -0.08836038 56.56630824 -0.09353343 58.35744667 -0.10366249 C73.06023622 -0.17660201 85.2956037 0.66376694 96.61987305 11.09106445 C102.67548147 17.45523892 105.57648736 24.36567293 106.2487793 33.09887695 C106.36600342 34.56006958 106.36600342 34.56006958 106.4855957 36.05078125 C106.53893066 36.78466064 106.59226563 37.51854004 106.6472168 38.2746582 C107.81597351 38.26355515 108.98473022 38.25245209 110.18890381 38.24101257 C121.19524809 38.13972027 132.201498 38.0647329 143.20820236 38.01559734 C148.86710767 37.98948702 154.52563717 37.95406211 160.18432617 37.89746094 C165.64378815 37.84319336 171.10288833 37.81324849 176.56259918 37.80027199 C178.64708402 37.79102273 180.73154873 37.7729612 182.81587982 37.74600792 C185.73242715 37.70978783 188.64747348 37.70470995 191.56420898 37.70703125 C192.4287973 37.68905487 193.29338562 37.67107849 194.18417358 37.65255737 C198.24267671 37.68758296 200.01305165 37.73440784 203.18354797 40.43537903 C204.84612191 43.66050174 205.14834797 45.65543496 205.14892578 49.27075195 C205.15830673 50.45548096 205.16768768 51.64020996 205.17735291 52.86083984 C205.16050194 54.76724243 205.16050194 54.76724243 205.14331055 56.7121582 C205.14476578 58.02498779 205.14622101 59.33781738 205.14772034 60.69042969 C205.14910207 63.46447892 205.13658543 66.2380097 205.11376953 69.01196289 C205.08538463 72.55956645 205.08812478 76.10630917 205.10085964 79.65397644 C205.10950515 83.0484598 205.09436395 86.44268934 205.08081055 89.8371582 C205.08374619 91.10809326 205.08668182 92.37902832 205.08970642 93.68847656 C205.07702225 94.87320557 205.06433807 96.05793457 205.05126953 97.27856445 C205.04586655 98.31827393 205.04046356 99.3579834 205.03489685 100.42919922 C204.58722539 103.71497769 203.59417988 105.61207602 201.6472168 108.2746582 C198.30770827 109.94441247 194.55431194 109.40348826 190.88305664 109.38818359 C189.97568253 109.38832962 189.06830841 109.38847565 188.13343811 109.3886261 C185.12498611 109.38792771 182.11659552 109.38013874 179.1081543 109.37231445 C177.02593011 109.37045001 174.94370549 109.36902623 172.86148071 109.36802673 C167.37384842 109.36420362 161.88624247 109.35437507 156.39862061 109.34332275 C150.80180213 109.33310423 145.20497941 109.32852816 139.6081543 109.32348633 C128.62116353 109.31275263 117.63419235 109.29567866 106.6472168 109.2746582 C106.568302 110.38417847 106.568302 110.38417847 106.48779297 111.51611328 C106.41020752 112.49475342 106.33262207 113.47339355 106.25268555 114.48168945 C106.17945068 115.44824463 106.10621582 116.4147998 106.03076172 117.41064453 C104.92003365 125.70469351 99.97266473 133.7276304 93.54174805 139.0012207 C85.85078355 144.37562963 78.83900407 146.73059545 69.54418945 146.67871094 C68.23516914 146.68900581 68.23516914 146.68900581 66.89970398 146.69950867 C64.03672663 146.71769559 61.1743016 146.71395039 58.3112793 146.70825195 C56.30642521 146.71281799 54.30157269 146.71812482 52.29672241 146.72413635 C48.10229113 146.73305183 43.9080504 146.73066253 39.71362305 146.72070312 C34.35843747 146.70922199 29.00391214 146.72942005 23.64881325 146.75862026 C19.51018141 146.77703408 15.37170623 146.77667937 11.23304367 146.77098274 C9.25962778 146.77083013 7.28620087 146.77682464 5.31282425 146.78927422 C-14.4423823 146.89634868 -14.4423823 146.89634868 -22.3527832 142.2746582 C-23.25512695 141.75645508 -24.1574707 141.23825195 -25.0871582 140.7043457 C-32.39197057 135.07001368 -36.88414226 128.17543283 -39.3527832 119.2746582 C-39.64093737 116.28416567 -39.64661755 113.30963973 -39.64331055 110.30688477 C-39.65002777 109.42474304 -39.656745 108.54260132 -39.66366577 107.63372803 C-39.68260858 104.72752187 -39.68656832 101.8215472 -39.6887207 98.9152832 C-39.695152 96.88515123 -39.70188061 94.85502018 -39.70889282 92.82489014 C-39.72085687 88.57147067 -39.72457462 84.31813237 -39.72338867 80.06469727 C-39.72318572 74.63325874 -39.75046762 69.20234481 -39.78493309 63.77103043 C-39.80725043 59.57751103 -39.8112247 55.38411682 -39.81016922 51.19054413 C-39.81251867 49.18920843 -39.82130498 47.18786893 -39.83683395 45.1865921 C-39.93862477 30.71139417 -39.30020187 20.40572256 -28.84887695 9.47387695 C-20.69596922 2.29064213 -10.61236135 -0.03601207 0 0 Z " fill="#010000" transform="translate(39.352783203125,200.725341796875)"/>
<path d="M0 0 C0.73452393 -0.00335861 1.46904785 -0.00671722 2.22583008 -0.01017761 C4.62933085 -0.0195964 7.03276128 -0.02162611 9.4362793 -0.02270508 C11.12485278 -0.02592395 12.81342599 -0.02928848 14.5019989 -0.03279114 C18.03307745 -0.03875973 21.56413161 -0.04063338 25.09521484 -0.04003906 C29.59367187 -0.03993757 34.09197062 -0.05358697 38.59039021 -0.07081127 C42.07621462 -0.08199387 45.56200152 -0.08395636 49.04784203 -0.08342934 C50.70503472 -0.08460014 52.36222867 -0.08897066 54.01940346 -0.0967617 C69.42246225 -0.16240195 82.55887429 0.37948117 94.3737793 11.21948242 C100.31347479 17.4898676 103.01488359 24.30486433 103.74487305 32.84448242 C103.83091797 33.83665771 103.91696289 34.82883301 104.00561523 35.85107422 C104.06910156 36.60815674 104.13258789 37.36523926 104.19799805 38.14526367 C105.35422668 38.13860184 106.51045532 38.13194 107.70172119 38.12507629 C118.59039262 38.06429936 129.47902971 38.01930743 140.36783218 37.98982716 C145.96607779 37.97416162 151.56418663 37.95290697 157.16235352 37.91894531 C162.56343686 37.88638379 167.96438853 37.86841735 173.36556244 37.86063194 C175.42768172 37.85508269 177.48979367 37.84424653 179.55185699 37.8280735 C182.43699297 37.80634202 185.32158265 37.80329497 188.20678711 37.8046875 C189.06202469 37.79390167 189.91726227 37.78311584 190.79841614 37.77200317 C194.29014573 37.79027677 196.58038503 37.81568581 199.69744873 39.47904968 C202.52199878 42.61543764 202.3323788 45.80113835 202.35913086 49.82250977 C202.3687384 50.98736908 202.37834595 52.15222839 202.38824463 53.35238647 C202.39461945 55.24146225 202.39461945 55.24146225 202.40112305 57.16870117 C202.40682312 58.46216461 202.41252319 59.75562805 202.418396 61.08828735 C202.42889477 63.82701001 202.4347448 66.56570341 202.43823242 69.30444336 C202.44371543 72.80716891 202.46774346 76.30950539 202.49620438 79.81210899 C202.51935062 83.16013223 202.52128156 86.50810207 202.52612305 89.85620117 C202.53846985 91.11153656 202.55081665 92.36687195 202.5635376 93.6602478 C202.5605365 94.83141144 202.5575354 96.00257507 202.55444336 97.20922852 C202.5599118 98.751194 202.5599118 98.751194 202.56549072 100.3243103 C202.13787852 103.60675418 201.14128121 105.48809647 199.19799805 108.14526367 C195.85848952 109.81501794 192.10509319 109.27409373 188.43383789 109.25878906 C187.52646378 109.25893509 186.61908966 109.25908112 185.68421936 109.25923157 C182.67576736 109.25853318 179.66737677 109.25074421 176.65893555 109.24291992 C174.57671136 109.24105548 172.49448674 109.2396317 170.41226196 109.2386322 C164.92462967 109.23480908 159.43702372 109.22498053 153.94940186 109.21392822 C148.35258338 109.2037097 142.75576066 109.19913363 137.15893555 109.1940918 C126.17194478 109.1833581 115.1849736 109.16628412 104.19799805 109.14526367 C104.11908325 110.25478394 104.11908325 110.25478394 104.03857422 111.38671875 C103.96098877 112.36535889 103.88340332 113.34399902 103.8034668 114.35229492 C103.73023193 115.3188501 103.65699707 116.28540527 103.58154297 117.28125 C102.44160195 125.79343851 97.34562385 133.7136775 90.79956055 139.12963867 C83.33008269 144.55790787 77.3508317 146.44737281 68.21435547 146.41992188 C66.88873344 146.42758827 66.88873344 146.42758827 65.53633118 146.43540955 C62.62530678 146.44926811 59.7145202 146.44835131 56.8034668 146.44604492 C54.77093926 146.44993444 52.73841253 146.45426964 50.70588684 146.45903015 C46.44826624 146.46648474 42.19072857 146.46620698 37.93310547 146.4609375 C32.49268408 146.45514971 27.0526039 146.472061 21.61223888 146.49528217 C17.41447483 146.51005781 13.21679218 146.5108859 9.01900673 146.50777245 C7.01406492 146.50828392 5.00911835 146.51348888 3.00420189 146.52358437 C0.19252133 146.53600317 -2.61850469 146.52912415 -5.43017578 146.51757812 C-6.24865997 146.52522186 -7.06714417 146.5328656 -7.91043091 146.54074097 C-17.88513492 146.45078801 -25.67085281 143.10755136 -32.80200195 136.14526367 C-38.59202081 129.17518383 -42.04740632 122.9546784 -42.06079102 113.72851562 C-42.06709534 112.47734451 -42.07339966 111.2261734 -42.07989502 109.93708801 C-42.07631606 108.58590553 -42.0722143 107.23472435 -42.06762695 105.88354492 C-42.0689755 104.48683098 -42.07091762 103.09011749 -42.07342529 101.69340515 C-42.07636471 98.77586366 -42.07211521 95.85844511 -42.06274414 92.94091797 C-42.05131834 89.20162141 -42.0579361 85.46261099 -42.06988907 81.72332478 C-42.07711262 78.8434381 -42.07481803 75.96361941 -42.06963348 73.0837307 C-42.0683 71.70462192 -42.06993417 70.32550696 -42.07459259 68.94640541 C-42.07966914 67.02221418 -42.07056025 65.09800125 -42.06079102 63.17382812 C-42.05919983 62.07939896 -42.05760864 60.98496979 -42.05596924 59.8573761 C-41.80200195 57.14526367 -41.80200195 57.14526367 -39.80200195 54.14526367 C-37.32700195 53.65026367 -37.32700195 53.65026367 -34.80200195 53.14526367 C-34.80200195 45.88526367 -34.80200195 38.62526367 -34.80200195 31.14526367 C-36.12200195 30.48526367 -37.44200195 29.82526367 -38.80200195 29.14526367 C-40.29790904 26.1534495 -40.22943206 24.50364308 -39.80200195 21.14526367 C-35.22267924 11.85143528 -28.05014473 5.58626509 -18.48950195 1.87182617 C-12.41045025 0.22836161 -6.26700874 0.01813927 0 0 Z " fill="#000000" transform="translate(41.802001953125,365.854736328125)"/>
<path d="M0 0 C1.28531974 -0.00654048 1.28531974 -0.00654048 2.59660554 -0.0132131 C5.49360758 -0.02423929 8.39014061 -0.01371319 11.28713989 -0.00342751 C13.37474246 -0.00688116 15.46234321 -0.01164374 17.54994011 -0.01760924 C23.30661575 -0.03018906 29.06314312 -0.02391724 34.81981945 -0.01465058 C41.02030149 -0.00788889 47.22075724 -0.01832696 53.42123413 -0.02659035 C64.87262462 -0.03918713 76.32394865 -0.03805637 87.77533883 -0.02985594 C98.3531505 -0.02231801 108.93094474 -0.02033509 119.50875854 -0.02392387 C120.20960842 -0.02415303 120.9104583 -0.02438218 121.63254605 -0.02461828 C124.47731373 -0.02555225 127.32208141 -0.02650745 130.16684907 -0.02749758 C156.86898621 -0.03668065 183.57109305 -0.02834457 210.27322552 -0.01220688 C234.01176659 0.00203061 257.75025939 0.00075675 281.48880005 -0.01358986 C308.14117995 -0.02964352 334.79353307 -0.03602947 361.44591713 -0.02675307 C364.28558985 -0.02579087 367.12526257 -0.02485236 369.9649353 -0.02392387 C370.66416768 -0.02368664 371.36340005 -0.02344941 372.08382128 -0.02320499 C382.65662671 -0.01978834 393.22941282 -0.02379127 403.80221558 -0.03136253 C415.8204332 -0.03992581 427.83858131 -0.037537 439.85679674 -0.0215203 C445.9937797 -0.01361228 452.13066446 -0.01058891 458.26764679 -0.02046776 C463.87823537 -0.02936295 469.48863407 -0.02456781 475.09920526 -0.0085351 C477.13616568 -0.00516523 479.17314193 -0.00693035 481.21009231 -0.01416247 C483.96485886 -0.02319796 486.71896276 -0.01401774 489.47369385 0 C490.27675406 -0.0070235 491.07981427 -0.014047 491.90720963 -0.02128333 C497.22037747 0.03328498 497.22037747 0.03328498 499.72969878 1.70580375 C501.42051303 4.51230988 501.11498106 7.203732 501.11779785 10.43770409 C501.12481781 11.5225571 501.12481781 11.5225571 501.13197958 12.62932634 C501.14397122 15.05924898 501.13445641 17.48861196 501.12503052 19.91853905 C501.12909438 21.65793755 501.13443521 23.39733347 501.14096069 25.13672447 C501.1546622 29.86600039 501.14932398 34.59508045 501.13982344 39.32435989 C501.1322415 44.26774572 501.13926836 49.21111449 501.14398193 54.15450096 C501.14944377 62.45689984 501.14223666 70.75921872 501.12796021 79.06160545 C501.11163288 88.6677512 501.11692108 98.27370594 501.13343942 107.87984705 C501.14704211 116.11939332 501.14897992 124.35888201 501.14112341 132.59843588 C501.13644019 137.52310601 501.13583983 142.44768629 501.14573288 147.37235069 C501.15438258 152.00166667 501.1484173 156.63073579 501.13105011 161.26002502 C501.12707456 162.96162378 501.12823749 164.66324323 501.1348381 166.36483383 C501.14300179 168.68261974 501.13279564 170.99960806 501.11779785 173.31734276 C501.11666677 174.61593979 501.1155357 175.91453682 501.11437035 177.25248528 C500.73684692 180.37752342 500.73684692 180.37752342 499.33635139 182.29539585 C497.27086744 183.69277683 495.98210644 183.75192886 493.49661255 183.74983788 C492.64562988 183.75606667 491.79464722 183.76229546 490.9178772 183.768713 C490.00219971 183.75950325 489.08652222 183.7502935 488.14309692 183.74080467 C486.72849182 183.74155243 486.72849182 183.74155243 485.28530884 183.74231529 C483.29143161 183.73997482 481.29755143 183.73024787 479.30374146 183.71370506 C476.24862296 183.69011435 473.19437709 183.69314413 470.13919067 183.69978905 C468.20298754 183.69421224 466.2667881 183.68710235 464.33059692 183.67830467 C463.41491943 183.67921608 462.49924194 183.68012749 461.55581665 183.68106651 C460.70483398 183.6715345 459.85385132 183.66200249 458.9770813 183.65218163 C458.22890137 183.64757423 457.48072144 183.64296684 456.70986938 183.63821983 C454.73684692 183.37752342 454.73684692 183.37752342 451.73684692 181.37752342 C450.39802427 177.93483661 450.6492809 176.59435357 452.04934692 173.12752342 C453.73684692 170.37752342 453.73684692 170.37752342 455.73684692 169.37752342 C465.96684692 169.37752342 476.19684692 169.37752342 486.73684692 169.37752342 C486.73684692 118.22752342 486.73684692 67.07752342 486.73684692 14.37752342 C327.01684692 14.37752342 167.29684692 14.37752342 2.73684692 14.37752342 C2.73684692 65.52752342 2.73684692 116.67752342 2.73684692 169.37752342 C13.77283325 169.36181297 24.80881958 169.34610252 36.17922974 169.329916 C71.46251645 169.28179856 106.74580328 169.24841 142.02911426 169.22432743 C147.50672445 169.22057517 152.98433454 169.21669222 158.46194458 169.2127285 C160.09773231 169.2115481 160.09773231 169.2115481 161.76656625 169.21034386 C179.44012955 169.19727859 197.11366368 169.17361859 214.78720966 169.14606503 C232.91262606 169.11804201 251.03802714 169.10135374 269.16346431 169.09525794 C280.35401781 169.09113505 291.54448885 169.07809839 302.73501697 169.05377402 C310.40162561 169.03795511 318.06819142 169.03311431 325.73481521 169.03701929 C330.16259999 169.03894685 334.59024034 169.03592614 339.01799965 169.019907 C343.06824498 169.00536015 347.11824809 169.00453688 351.16850433 169.01482674 C352.6369421 169.0160994 354.1053947 169.01224966 355.5738031 169.00287388 C357.56393868 168.99090151 359.55416543 168.99908853 361.54431534 169.00837994 C362.65157982 169.00724078 363.7588443 169.00610161 364.89966226 169.00492793 C368.08166121 169.42280643 369.44645393 170.16951138 371.73684692 172.37752342 C372.45169067 174.31502342 372.45169067 174.31502342 372.67434692 176.37752342 C372.76587036 177.05814842 372.8573938 177.73877342 372.95169067 178.44002342 C372.73684692 180.37752342 372.73684692 180.37752342 371.61492729 181.97502196 C368.89380528 184.00708495 366.84777145 183.75361181 363.47271729 183.75504684 C362.83194929 183.75940717 362.19118129 183.76376749 361.53099608 183.76825994 C359.36909544 183.77926821 357.20782567 183.76876892 355.04592896 183.75847435 C353.48629999 183.76192873 351.92667346 183.76669181 350.36705208 183.77265608 C346.0697611 183.78522603 341.77266895 183.77896861 337.47537708 183.76969743 C332.84545835 183.7629317 328.21557469 183.77337582 323.58566284 183.78163719 C314.51111085 183.79500327 305.43663314 183.79208402 296.36207819 183.78339927 C288.98945663 183.77663441 281.61685595 183.7757008 274.24423218 183.77897072 C273.19641827 183.77943042 272.14860436 183.77989012 271.06903851 183.78036375 C268.9406743 183.78132289 266.81231009 183.78229552 264.68394589 183.78328152 C244.70868537 183.79184384 224.73346609 183.7819881 204.75821233 183.76588042 C187.60458549 183.75247648 170.45101954 183.75480434 153.2973938 183.7686367 C133.39543848 183.78467767 113.49351934 183.79101978 93.59155846 183.78179991 C91.47085953 183.78084423 89.3501606 183.77990112 87.22946167 183.77897072 C86.18593509 183.77850789 85.14240851 183.77804507 84.06725991 183.77756821 C76.70029785 183.77497387 69.33335867 183.77935888 61.96640015 183.78640938 C52.99311428 183.79480812 44.01990718 183.79257859 35.04663038 183.77656715 C30.46504091 183.76866246 25.88358293 183.76563006 21.30199432 183.7755146 C17.11250717 183.78441675 12.9232741 183.77960321 8.73381019 183.76358195 C7.21367068 183.76021503 5.69350995 183.76197074 4.17338395 183.76920931 C2.11560454 183.77826072 0.05870889 183.76904938 -1.99902344 183.75504684 C-3.71728679 183.75431626 -3.71728679 183.75431626 -5.47026253 183.75357091 C-8.26315308 183.37752342 -8.26315308 183.37752342 -10.13106596 182.04924309 C-12.00656674 179.27974637 -11.64123512 176.61113048 -11.644104 173.31734276 C-11.64878398 172.59410741 -11.65346395 171.87087207 -11.65828574 171.1257205 C-11.67027737 168.69579787 -11.66076256 166.26643488 -11.65133667 163.8365078 C-11.65540053 162.0971093 -11.66074136 160.35771338 -11.66726685 158.61832237 C-11.68096835 153.88904645 -11.67563013 149.15996639 -11.66612959 144.43068695 C-11.65854765 139.48730112 -11.66557452 134.54393235 -11.67028809 129.60054588 C-11.67574992 121.29814701 -11.66854281 112.99582813 -11.65426636 104.69344139 C-11.63793903 95.08729565 -11.64322724 85.48134091 -11.65974557 75.87519979 C-11.67334826 67.63565352 -11.67528607 59.39616484 -11.66742957 51.15661097 C-11.66274634 46.23194083 -11.66214598 41.30736055 -11.67203903 36.38269615 C-11.68068873 31.75338017 -11.67472345 27.12431106 -11.65735626 22.49502182 C-11.65338071 20.79342306 -11.65454365 19.09180361 -11.66114426 17.39021301 C-11.66930794 15.0724271 -11.6591018 12.75543878 -11.644104 10.43770409 C-11.64297293 9.13910706 -11.64184185 7.84051003 -11.6406765 6.50256157 C-11.26315308 3.37752342 -11.26315308 3.37752342 -10.25600493 1.70580375 C-7.08055545 -0.41070434 -3.68967673 -0.03226961 0 0 Z " fill="#000000" transform="translate(11.263153076171875,-0.37752342224121094)"/>
<path d="M0 0 C0.82654083 -0.00671722 1.65308167 -0.01343445 2.50466919 -0.02035522 C5.23657246 -0.03934854 7.96823012 -0.04326044 10.70019531 -0.04541016 C12.60345561 -0.05183841 14.50671492 -0.05856679 16.40997314 -0.06558228 C20.4012684 -0.07755927 24.3924771 -0.08126279 28.38378906 -0.08007812 C33.48592136 -0.0798752 38.587495 -0.10714805 43.68949509 -0.14162254 C47.62215701 -0.16391838 51.55468522 -0.1679148 55.48740387 -0.16685867 C57.36758596 -0.16921171 59.24777191 -0.17801845 61.12789154 -0.19352341 C63.76533969 -0.21323276 66.40159299 -0.20732577 69.0390625 -0.1953125 C69.80817963 -0.20655151 70.57729675 -0.21779053 71.36972046 -0.22937012 C77.77584297 -0.15563478 82.96579485 1.8146362 87.80175781 6.07177734 C88.24777344 6.63896484 88.69378906 7.20615234 89.15332031 7.79052734 C89.84554687 8.64130859 89.84554687 8.64130859 90.55175781 9.50927734 C93.74051942 14.14009038 94.07533903 17.9458516 94.06884766 23.51220703 C94.07556488 24.33874786 94.0822821 25.1652887 94.08920288 26.01687622 C94.10819619 28.7487795 94.11210809 31.48043715 94.11425781 34.21240234 C94.12068607 36.11566264 94.12741445 38.01892195 94.13442993 39.92218018 C94.14640692 43.91347544 94.15011045 47.90468413 94.14892578 51.89599609 C94.14872286 56.9981284 94.17599571 62.09970203 94.2104702 67.20170212 C94.23276603 71.13436404 94.23676246 75.06689226 94.23570633 78.9996109 C94.23805937 80.87979299 94.24686611 82.75997894 94.26237106 84.64009857 C94.28208042 87.27754672 94.27617342 89.91380002 94.26416016 92.55126953 C94.27539917 93.32038666 94.28663818 94.08950378 94.29821777 94.88192749 C94.22446521 101.28954664 92.237299 106.44097262 88.03222656 111.31396484 C87.4740625 111.75998047 86.91589844 112.20599609 86.34082031 112.66552734 C85.50744141 113.35775391 85.50744141 113.35775391 84.65722656 114.06396484 C79.77738567 117.24955744 75.24091329 117.58782163 69.53491211 117.58105469 C68.71797882 117.58777191 67.90104553 117.59448914 67.05935669 117.60140991 C64.36535517 117.62036851 61.6716031 117.62431315 58.97753906 117.62646484 C57.09812824 117.63289471 55.21871842 117.63962321 53.33930969 117.64663696 C49.40106894 117.6586047 45.46291586 117.66231835 41.5246582 117.66113281 C36.49093302 117.66092976 31.45777325 117.68822024 26.42418194 117.72267723 C22.54213404 117.74497245 18.66022159 117.74896953 14.77811623 117.74791336 C12.92305365 117.75026581 11.06798714 117.75906923 9.2129879 117.77457809 C6.61156616 117.79428958 4.01135554 117.78838008 1.40991211 117.77636719 C0.65171677 117.7876062 -0.10647858 117.79884521 -0.88764954 117.8104248 C-7.26054949 117.73606597 -12.36509485 115.70594078 -17.24511719 111.57958984 C-17.69113281 111.03044922 -18.13714844 110.48130859 -18.59667969 109.91552734 C-19.05816406 109.37154297 -19.51964844 108.82755859 -19.99511719 108.26708984 C-22.71142589 103.88985353 -23.4709799 99.50650574 -23.49291992 94.42456055 C-23.50310654 93.29351395 -23.51329315 92.16246735 -23.52378845 90.99714661 C-23.52699852 89.18750679 -23.52699852 89.18750679 -23.53027344 87.34130859 C-23.55541607 84.77685303 -23.58081433 82.21239995 -23.60644531 79.64794922 C-23.63527835 75.61206367 -23.6595296 71.57622657 -23.67797852 67.5402832 C-23.69687285 63.64044247 -23.73895936 59.74097656 -23.78027344 55.84130859 C-23.78038925 54.62880936 -23.78050507 53.41631012 -23.78062439 52.16706848 C-23.80063255 50.4846833 -23.80063255 50.4846833 -23.82104492 48.76831055 C-23.82611557 47.78047073 -23.83118622 46.79263092 -23.83641052 45.77485657 C-24.28659752 42.87191803 -24.88017345 42.00904175 -27.22167969 40.29052734 C-28.21167969 39.96052734 -29.20167969 39.63052734 -30.22167969 39.29052734 C-30.22167969 31.70052734 -30.22167969 24.11052734 -30.22167969 16.29052734 C-27.91167969 15.63052734 -25.60167969 14.97052734 -23.22167969 14.29052734 C-21.3395009 12.56012122 -21.3395009 12.56012122 -20.09667969 10.41552734 C-14.70241457 2.49628706 -9.40787645 -0.01097128 0 0 Z " fill="#69A8FD" transform="translate(37.2216796875,380.70947265625)"/>
<path d="M0 0 C0.83614838 -0.00817749 1.67229675 -0.01635498 2.53378296 -0.02478027 C5.30352059 -0.04961016 8.07320699 -0.06614575 10.84301758 -0.08056641 C12.26366233 -0.08855192 12.26366233 -0.08855192 13.71300697 -0.09669876 C18.72777115 -0.1234222 23.74251053 -0.14279812 28.75732422 -0.15722656 C32.90208041 -0.17055689 37.04634325 -0.19839397 41.19091797 -0.23925781 C46.20002057 -0.28864366 51.2086762 -0.31335516 56.21801186 -0.32045364 C58.12334381 -0.3271556 60.02866622 -0.34235013 61.93385887 -0.36634445 C64.6074716 -0.39809038 67.279372 -0.39801872 69.953125 -0.390625 C70.73316391 -0.40703033 71.51320282 -0.42343567 72.31687927 -0.44033813 C78.89661697 -0.3662432 83.61414746 2.11758712 88.3314085 6.67106056 C93.22578082 12.21443939 94.09923648 17.13044984 94.09057617 24.32861328 C94.0972934 25.13418671 94.10401062 25.93976013 94.1109314 26.76974487 C94.12989021 29.42647515 94.13383482 32.08295241 94.13598633 34.73974609 C94.14241683 36.59434105 94.14914538 38.44893499 94.15615845 40.30352783 C94.16812672 44.19049428 94.17183984 48.0773719 94.1706543 51.96435547 C94.17045139 56.92848354 94.19772632 61.89203732 94.23219872 66.85602951 C94.25451467 70.68750589 94.25849036 74.51884524 94.25743484 78.35037994 C94.25978478 80.17949651 94.26857386 82.00861719 94.28409958 83.83766937 C94.43862803 103.9268293 94.43862803 103.9268293 88.45883179 110.71551514 C82.52460172 116.17006848 76.22534659 117.64390714 68.42138672 117.59692383 C67.21017906 117.6072187 67.21017906 117.6072187 65.97450256 117.61772156 C63.323721 117.635919 60.67353529 117.63216226 58.02270508 117.62646484 C56.16857208 117.63103002 54.31444076 117.6363366 52.46031189 117.64234924 C48.58105581 117.65126648 44.70200575 117.64887302 40.82275391 117.63891602 C35.86527882 117.62742791 30.90851621 117.64764245 25.95113468 117.67683315 C22.12397283 117.69522832 18.29698068 117.69489609 14.46978569 117.68919563 C12.64264362 117.68904283 10.81548974 117.69505348 8.98838997 117.70748711 C6.42784769 117.72245848 3.86860853 117.71167591 1.30810547 117.69458008 C0.56240295 117.70424805 -0.18329956 117.71391602 -0.95159912 117.72387695 C-7.27857976 117.63595408 -12.38046905 115.57691196 -17.22338867 111.48193359 C-17.6694043 110.93279297 -18.11541992 110.38365234 -18.57495117 109.81787109 C-19.03643555 109.27388672 -19.49791992 108.72990234 -19.97338867 108.16943359 C-23.17115321 103.01634807 -23.50116658 97.76894419 -23.50634766 91.85180664 C-23.51467117 91.03633362 -23.52299469 90.2208606 -23.53157043 89.38067627 C-23.55557624 86.69693157 -23.56443103 84.01343038 -23.57104492 81.32958984 C-23.58001851 79.45400422 -23.58914049 77.5784193 -23.59840393 75.70283508 C-23.61487096 71.77477279 -23.62258986 67.8467955 -23.62548828 63.91870117 C-23.63086925 58.90180687 -23.66854739 53.88571879 -23.71423244 48.86905193 C-23.74407256 44.99554066 -23.75121335 41.12222192 -23.75221443 37.24860573 C-23.75640303 35.39993409 -23.76878232 33.55126115 -23.78973198 31.70270348 C-23.98882756 12.61585005 -23.98882756 12.61585005 -18.19995117 6.19287109 C-12.4550392 1.02272274 -7.50917719 0.04048384 0 0 Z " fill="#FBD643" transform="translate(306.199951171875,215.80712890625)"/>
<path d="M0 0 C0.8362944 -0.00832352 1.67258881 -0.01664703 2.53422546 -0.02522278 C5.29858055 -0.04931419 8.0626995 -0.0580947 10.82714844 -0.06469727 C12.75282867 -0.07366566 14.6785082 -0.08278755 16.60418701 -0.09205627 C20.64255465 -0.10854748 24.68083938 -0.11624638 28.71923828 -0.11914062 C33.88200976 -0.12451841 39.04399658 -0.16217295 44.20654678 -0.20788479 C48.18553475 -0.23770138 52.16433503 -0.24486522 56.14342499 -0.24586678 C58.04595272 -0.25006148 59.94848139 -0.26246558 61.85089874 -0.28338432 C64.51966635 -0.31038882 67.18663206 -0.30544643 69.85546875 -0.29296875 C70.63393661 -0.30780304 71.41240448 -0.32263733 72.21446228 -0.33792114 C78.77405201 -0.25105014 83.5593935 2.21580528 88.2179451 6.81992435 C93.00583956 12.3397477 93.98544675 16.32853541 93.97705078 23.52807617 C93.98376801 24.354617 93.99048523 25.18115784 93.99740601 26.03274536 C94.01639932 28.76464864 94.02031122 31.49630629 94.02246094 34.22827148 C94.02888919 36.13153178 94.03561757 38.03479109 94.04263306 39.93804932 C94.05461005 43.92934458 94.05831357 47.92055327 94.05712891 51.91186523 C94.05692598 57.01399754 94.08419884 62.11557117 94.11867332 67.21757126 C94.14096916 71.15023318 94.14496558 75.0827614 94.14390945 79.01548004 C94.14626249 80.89566214 94.15506923 82.77584808 94.17057419 84.65596771 C94.19028354 87.29341586 94.18437655 89.92966916 94.17236328 92.56713867 C94.18360229 93.3362558 94.19484131 94.10537292 94.2064209 94.89779663 C94.13266834 101.30541578 92.14550212 106.45684177 87.94042969 111.32983398 C87.38226563 111.77584961 86.82410156 112.22186523 86.24902344 112.68139648 C85.41564453 113.37362305 85.41564453 113.37362305 84.56542969 114.07983398 C79.68558879 117.26542658 75.14911641 117.60369077 69.44311523 117.59692383 C68.62618195 117.60364105 67.80924866 117.61035828 66.96755981 117.61727905 C64.27355829 117.63623765 61.57980623 117.64018229 58.88574219 117.64233398 C57.00633137 117.64876385 55.12692155 117.65549235 53.24751282 117.6625061 C49.30927206 117.67447385 45.37111898 117.67818749 41.43286133 117.67700195 C36.39913614 117.6767989 31.36597638 117.70408938 26.33238506 117.73854637 C22.45033716 117.76084159 18.56842471 117.76483867 14.68631935 117.7637825 C12.83125677 117.76613495 10.97619026 117.77493837 9.12119102 117.79044724 C6.51976928 117.81015872 3.91955866 117.80424922 1.31811523 117.79223633 C0.55991989 117.80347534 -0.19827545 117.81471436 -0.97944641 117.82629395 C-7.35234636 117.75193511 -12.45689173 115.72180992 -17.33691406 111.59545898 C-17.78292969 111.04631836 -18.22894531 110.49717773 -18.68847656 109.93139648 C-19.14996094 109.38741211 -19.61144531 108.84342773 -20.08691406 108.28295898 C-23.2877562 103.12491401 -23.61469791 97.87205422 -23.61987305 91.94946289 C-23.62819656 91.13238358 -23.63652008 90.31530426 -23.64509583 89.47346497 C-23.6690992 86.78491385 -23.67795557 84.09660573 -23.68457031 81.40795898 C-23.69354321 79.52997773 -23.70266517 77.65199718 -23.71192932 75.77401733 C-23.72839505 71.84175889 -23.73611517 67.90958536 -23.73901367 63.97729492 C-23.74439837 58.95133521 -23.78209245 53.92617884 -23.82775784 48.90044594 C-23.85757273 45.02268594 -23.86473817 41.14511851 -23.86573982 37.26725388 C-23.86993244 35.41496471 -23.88232812 33.56267447 -23.90325737 31.71049881 C-23.93026771 29.11377892 -23.92531878 26.51891013 -23.9128418 23.92211914 C-23.92767609 23.16549484 -23.94251038 22.40887054 -23.95779419 21.62931824 C-23.86961358 15.14893054 -21.34182449 10.37223027 -16.79994869 5.77413368 C-11.25245879 0.96525371 -7.23384836 0.00611284 0 0 Z " fill="#FD631A" transform="translate(37.3134765625,215.693603515625)"/>
<path d="M0 0 C0.82654083 -0.00671722 1.65308167 -0.01343445 2.50466919 -0.02035522 C5.23657246 -0.03934854 7.96823012 -0.04326044 10.70019531 -0.04541016 C12.60345561 -0.05183841 14.50671492 -0.05856679 16.40997314 -0.06558228 C20.4012684 -0.07755927 24.3924771 -0.08126279 28.38378906 -0.08007812 C33.48592136 -0.0798752 38.587495 -0.10714805 43.68949509 -0.14162254 C47.62215701 -0.16391838 51.55468522 -0.1679148 55.48740387 -0.16685867 C57.36758596 -0.16921171 59.24777191 -0.17801845 61.12789154 -0.19352341 C63.76533969 -0.21323276 66.40159299 -0.20732577 69.0390625 -0.1953125 C69.80817963 -0.20655151 70.57729675 -0.21779053 71.36972046 -0.22937012 C77.7773396 -0.15561755 82.92876559 1.83154866 87.80175781 6.03662109 C88.47078125 6.87386719 88.47078125 6.87386719 89.15332031 7.72802734 C89.84554687 8.56140625 89.84554687 8.56140625 90.55175781 9.41162109 C93.68218259 14.20695331 94.07575502 18.64792478 94.06884766 24.25854492 C94.07556488 25.0462175 94.0822821 25.83389008 94.08920288 26.64543152 C94.10815599 29.24203857 94.11210584 31.83838673 94.11425781 34.43505859 C94.1206881 36.24720871 94.12741663 38.05935779 94.13442993 39.87150574 C94.14639632 43.66851202 94.15011146 47.46542737 94.14892578 51.26245117 C94.14872274 56.11458264 94.17601212 60.96612743 94.2104702 65.81812 C94.23277053 69.56119942 94.23676235 73.30413841 94.23570633 77.04727745 C94.23805806 78.83535469 94.24685737 80.62343604 94.26237106 82.41144753 C94.28209299 84.91948456 94.27616921 87.42626646 94.26416016 89.93432617 C94.27539917 90.6644693 94.28663818 91.39461243 94.29821777 92.1468811 C94.22108663 98.52529304 92.09694895 103.69141943 87.84082031 108.46240234 C75.93863226 117.56937956 63.76516579 117.89589609 49.40722656 117.82177734 C47.55305275 117.82447721 45.69888032 117.82836373 43.8447113 117.83337402 C39.98267977 117.83923553 36.12102106 117.83080814 32.2590332 117.81201172 C27.31370782 117.78911149 22.36924566 117.80243594 17.42395115 117.82630157 C13.60547878 117.84075494 9.78721137 117.83615763 5.96873283 117.82579041 C4.14470249 117.82312764 2.32065339 117.826377 0.49664497 117.83570862 C-2.04725471 117.84587923 -4.58974982 117.83037217 -7.13354492 117.80810547 C-8.2564946 117.82025085 -8.2564946 117.82025085 -9.40213013 117.8326416 C-12.95719484 117.77505513 -15.06450076 117.38731672 -18.11573792 115.50839233 C-25.69181327 107.52967587 -23.6949965 93.56902806 -23.69042969 83.34521484 C-23.69754114 81.4056883 -23.70524157 79.46616384 -23.71350098 77.52664185 C-23.7268952 73.47701146 -23.72853611 69.42757592 -23.72265625 65.37792969 C-23.71674771 60.20184237 -23.7474232 55.02668897 -23.78777313 49.85078239 C-23.81367516 45.85119636 -23.81652559 41.851835 -23.81288147 37.85217667 C-23.8145686 35.94407926 -23.82417175 34.03597101 -23.84202576 32.12795639 C-23.864279 29.45739466 -23.85448415 26.78872192 -23.83691406 24.11816406 C-23.85017731 23.33977173 -23.86344055 22.56137939 -23.87710571 21.75939941 C-23.77742125 15.20503428 -21.30925356 10.41475947 -16.70821381 5.75909233 C-11.18824697 0.97131259 -7.19962372 -0.00839606 0 0 Z " fill="#96DC3D" transform="translate(306.2216796875,380.70947265625)"/>
<path d="M0 0 C1.0020195 -0.00761353 2.004039 -0.01522705 3.03642273 -0.02307129 C5.14494349 -0.03381832 7.25351725 -0.03674752 9.36206055 -0.03222656 C12.55544628 -0.03125571 15.74641413 -0.07291148 18.93945312 -0.1171875 C32.04108705 -0.19486922 42.58497108 0.09357453 52.76171875 9.28125 C58.93204666 16.08015602 61.34564022 22.95110162 61.4387207 32.07836914 C61.45797356 33.7314785 61.45797356 33.7314785 61.47761536 35.41798401 C61.48500229 36.60133835 61.49238922 37.78469269 61.5 39.00390625 C61.50807175 40.23354599 61.51614349 41.46318573 61.52445984 42.73008728 C61.53828149 45.33330891 61.54901221 47.93654851 61.55688477 50.53979492 C61.56838657 53.18828685 61.58880946 55.83675592 61.6184082 58.48510742 C61.6613092 62.32486629 61.67728736 66.16393674 61.6875 70.00390625 C61.70500809 71.17309097 61.72251617 72.3422757 61.74055481 73.54689026 C61.71967267 81.57077178 60.13578862 88.01340536 57.26171875 95.46875 C56.04675451 98.58602484 56.04675451 98.58602484 55.26171875 101.46875 C56.34444974 103.64751518 56.34444974 103.64751518 58.19921875 105.40625 C60.77581904 108.48401968 61.24856727 109.06762976 61.38671875 113.28125 C60.26171875 116.46875 60.26171875 116.46875 58.57421875 118.46875 C55.27241347 119.89655769 53.65564787 119.64623561 50.26171875 118.46875 C48.28680857 116.60212471 46.86789619 114.6890541 45.26171875 112.46875 C41.51184808 113.2879785 38.31699042 114.77981487 34.87109375 116.43359375 C21.61117184 121.69389211 3.30476152 121.85457738 -10.05078125 116.79296875 C-21.56674606 111.11867795 -30.19826349 102.59246783 -34.73828125 90.46875 C-36.85042615 83.28688442 -37.04507633 76.32045759 -37.0390625 68.875 C-37.04334763 67.68829712 -37.04763275 66.50159424 -37.05204773 65.27893066 C-37.05776588 62.78117508 -37.05830995 60.28340286 -37.05395508 57.78564453 C-37.05079102 53.98050399 -37.07430138 50.17613864 -37.09960938 46.37109375 C-37.10188232 43.93489681 -37.10258589 41.49869779 -37.1015625 39.0625 C-37.11077225 37.9341272 -37.11998199 36.80575439 -37.12947083 35.64318848 C-37.06893131 25.22980439 -34.93017958 17.18132876 -27.73828125 9.46875 C-19.60366987 1.8833107 -10.88935753 0.00232347 0 0 Z " fill="#010102" transform="translate(68.73828125,31.53125)"/>
<path d="M0 0 C0.85261917 -0.00394272 1.70523834 -0.00788544 2.58369446 -0.01194763 C5.39485917 -0.01864675 8.20439063 0.01047925 11.01538086 0.04077148 C12.97163071 0.04502279 14.92788561 0.04735029 16.88414001 0.0478363 C20.98061033 0.05399857 25.07653319 0.07668464 29.17285156 0.11230469 C34.42431845 0.15760667 39.67529 0.17233244 44.92693424 0.1760416 C48.96496976 0.18046968 53.00290127 0.19577217 57.04089165 0.21491814 C58.97738223 0.22379819 60.91388389 0.23052924 62.85038948 0.23507881 C65.55539738 0.24411969 68.25995724 0.26650848 70.96484375 0.29296875 C71.76547241 0.29363342 72.56610107 0.2942981 73.39099121 0.29498291 C80.35114249 0.38896784 80.35114249 0.38896784 83.41772461 2.59936523 C85.61768439 6.9992848 84.64482387 12.93888945 84.65795898 17.83007812 C84.66767229 20.02504256 84.6986987 22.21907345 84.73022461 24.41381836 C84.73675409 25.80769301 84.74200478 27.20157435 84.74584961 28.59545898 C84.75519531 29.86574951 84.76454102 31.13604004 84.77416992 32.44482422 C84.41772461 35.59936523 84.41772461 35.59936523 83.1159668 37.51367188 C80.24203099 39.3509911 77.71403706 38.95254157 74.41772461 38.59936523 C72.71728516 37.38134766 72.71728516 37.38134766 71.41772461 35.59936523 C71.07714844 33.33105469 71.07714844 33.33105469 71.12475586 30.71264648 C71.13599487 29.44481323 71.13599487 29.44481323 71.14746094 28.15136719 C71.17477295 27.08233154 71.20208496 26.0132959 71.23022461 24.91186523 C71.29209961 21.50874023 71.35397461 18.10561523 71.41772461 14.59936523 C61.84772461 14.59936523 52.27772461 14.59936523 42.41772461 14.59936523 C42.41772461 44.62936523 42.41772461 74.65936523 42.41772461 105.59936523 C51.98772461 105.59936523 61.55772461 105.59936523 71.41772461 105.59936523 C71.2992224 98.82300066 71.2992224 98.82300066 71.14746094 92.04736328 C71.13996826 91.20214111 71.13247559 90.35691895 71.12475586 89.48608398 C71.10904541 88.62200928 71.09333496 87.75793457 71.07714844 86.86767578 C71.41772461 84.59936523 71.41772461 84.59936523 72.71728516 82.81738281 C75.55084688 80.78771455 78.06238699 81.23986478 81.41772461 81.59936523 C83.11376953 82.68725586 83.11376953 82.68725586 84.41772461 84.59936523 C84.79003906 87.73803711 84.79003906 87.73803711 84.78100586 91.56811523 C84.78175362 92.58319153 84.78175362 92.58319153 84.78251648 93.61877441 C84.78017884 95.04771871 84.77046843 96.47666735 84.75390625 97.90551758 C84.73030841 100.09160211 84.73334756 102.2764669 84.73999023 104.46264648 C84.69696743 115.18050101 84.69696743 115.18050101 82.41772461 118.59936523 C78.61825893 119.86585379 75.03856402 119.7712593 71.07836914 119.79223633 C69.8022879 119.80450256 69.8022879 119.80450256 68.50042725 119.8170166 C65.68380435 119.84183978 62.86723166 119.85837685 60.05053711 119.87280273 C58.60772684 119.88078825 58.60772684 119.88078825 57.13576889 119.88893509 C52.04665677 119.91565057 46.95756907 119.93503245 41.8684082 119.94946289 C36.61007524 119.96612634 31.35236712 120.01092288 26.09427071 120.06183434 C22.05194366 120.09546752 18.00976586 120.10703585 13.96731186 120.11268997 C12.02879931 120.119411 10.09029687 120.13465512 8.15192032 120.15858078 C5.43938215 120.19015754 2.72854242 120.19028087 0.01586914 120.18286133 C-0.78430634 120.19926666 -1.58448181 120.215672 -2.40890503 120.23257446 C-6.45674066 120.18725468 -8.34981725 119.78069685 -11.58021545 117.26078796 C-14.08849794 113.92642224 -14.21376432 112.05143036 -14.21118164 107.90795898 C-14.21311523 106.6337207 -14.21504883 105.35948242 -14.21704102 104.04663086 C-14.20455322 103.38832275 -14.19206543 102.73001465 -14.17919922 102.05175781 C-14.14479846 100.0382153 -14.15857146 98.02904667 -14.17797852 96.01538086 C-14.10406973 86.2840578 -14.10406973 86.2840578 -11.76953125 83.22070312 C-8.59272673 80.86584669 -6.42722551 81.04009976 -2.58227539 81.59936523 C-0.55730011 83.66834272 0.33029653 85.01149756 0.75830078 87.8894043 C0.74259033 88.70634766 0.72687988 89.52329102 0.71069336 90.36499023 C0.70320068 91.16710937 0.69570801 91.96922852 0.68798828 92.7956543 C0.66067627 93.80337891 0.63336426 94.81110352 0.60522461 95.84936523 C0.51241211 100.67561523 0.51241211 100.67561523 0.41772461 105.59936523 C9.65772461 105.59936523 18.89772461 105.59936523 28.41772461 105.59936523 C28.41772461 75.56936523 28.41772461 45.53936523 28.41772461 14.59936523 C19.17772461 14.59936523 9.93772461 14.59936523 0.41772461 14.59936523 C0.53606813 21.00160963 0.53606813 21.00160963 0.68798828 27.40307617 C0.69548096 28.20519531 0.70297363 29.00731445 0.71069336 29.83374023 C0.73425903 31.05915527 0.73425903 31.05915527 0.75830078 32.30932617 C0.33004063 35.18895356 -0.55093768 36.53332125 -2.58227539 38.59936523 C-8.56285791 39.34693805 -8.56285791 39.34693805 -11.45727539 37.22436523 C-14.96891216 32.15200101 -13.89212057 25.74260847 -13.95727539 19.78686523 C-14.01334961 17.86003906 -14.01334961 17.86003906 -14.07055664 15.89428711 C-14.0821582 14.65614258 -14.09375977 13.41799805 -14.10571289 12.14233398 C-14.12553223 11.00820068 -14.14535156 9.87406738 -14.16577148 8.70556641 C-12.69873218 0.89588395 -6.98362661 -0.12972272 0 0 Z " fill="#010202" transform="translate(278.582275390625,31.400634765625)"/>
<path d="M0 0 C0.99214005 -0.00619858 1.98428009 -0.01239716 3.00648499 -0.01878357 C5.09667992 -0.02586118 7.18693148 -0.02274388 9.27709961 -0.01000977 C12.45988622 0.00385064 15.63972705 -0.03024072 18.82226562 -0.06835938 C20.8606778 -0.06931076 22.89909362 -0.06745072 24.9375 -0.0625 C25.88044418 -0.07575821 26.82338837 -0.08901642 27.79490662 -0.10267639 C35.77802867 0.00877182 40.43384824 2.43660371 46.00634766 8.06030273 C48.38454544 13.51435868 48.06529453 18.77964437 47.99609375 24.6640625 C47.99517731 25.93108505 47.99426086 27.1981076 47.99331665 28.50352478 C47.98728317 31.17778824 47.97371597 33.85065935 47.94677734 36.5246582 C47.91276404 39.9431992 47.9051504 43.36114909 47.90666771 46.77983952 C47.90599167 50.05380521 47.88830754 53.32764803 47.87109375 56.6015625 C47.8688681 57.82561295 47.86664246 59.04966339 47.86434937 60.31080627 C47.85158966 61.45226608 47.83882996 62.59372589 47.82568359 63.76977539 C47.8142482 65.27152061 47.8142482 65.27152061 47.80258179 66.80360413 C47.52023785 69.72052983 46.75309836 71.914648 45.53515625 74.56640625 C41.46052034 70.6499355 37.88701437 66.46836377 34.34765625 62.06640625 C33.7846582 61.37023193 33.22166016 60.67405762 32.64160156 59.95678711 C28.12713361 54.35325799 23.71878798 48.67290047 19.36328125 42.9453125 C17.74511271 40.73309222 17.74511271 40.73309222 16.53515625 39.56640625 C15.01587587 39.49460661 13.49348143 39.48248618 11.97265625 39.50390625 C11.14636719 39.51292969 10.32007813 39.52195313 9.46875 39.53125 C8.83066406 39.54285156 8.19257812 39.55445313 7.53515625 39.56640625 C6.2970416 44.67521072 6.2970416 44.67521072 8.203125 49.40234375 C10.61194717 52.67059493 13.06880447 55.89078699 15.59765625 59.06640625 C16.56775782 60.29292961 17.53780833 61.51949336 18.5078125 62.74609375 C19.0042627 63.37225586 19.50071289 63.99841797 20.01220703 64.64355469 C22.5279096 67.8198409 25.03142389 71.00568236 27.53515625 74.19140625 C27.99156494 74.77083984 28.44797363 75.35027344 28.91821289 75.94726562 C30.1273134 77.48426931 31.33145006 79.02517434 32.53515625 80.56640625 C33.15390625 81.29601562 33.77265625 82.025625 34.41015625 82.77734375 C34.78140625 83.36773437 35.15265625 83.958125 35.53515625 84.56640625 C34.53515625 87.56640625 34.53515625 87.56640625 32.92358398 88.71459961 C26.14862558 91.89014421 20.00724569 92.20142382 12.59765625 92.12890625 C11.48197266 92.15275391 10.36628906 92.17660156 9.21679688 92.20117188 C-0.30711952 92.18443388 -8.60308216 89.42816784 -15.46484375 82.56640625 C-21.7735183 73.98882243 -22.78785269 66.4924007 -22.8359375 56.01171875 C-22.84496597 54.79620331 -22.85399445 53.58068787 -22.86329651 52.32833862 C-22.87778045 49.76139787 -22.88668112 47.19442036 -22.89038086 44.62744141 C-22.90228137 40.71192975 -22.95149344 36.79799211 -23.00195312 32.8828125 C-23.01141748 30.38412224 -23.01865245 27.88542235 -23.0234375 25.38671875 C-23.04296982 24.22189972 -23.06250214 23.05708069 -23.08262634 21.85696411 C-23.04415826 14.88713471 -22.40017131 9.74999382 -17.46484375 4.56640625 C-12.29554133 -0.02952638 -6.64248464 -0.03486451 0 0 Z " fill="#69A7FC" transform="translate(68.46484375,45.43359375)"/>
<path d="M0 0 C0.86062042 -0.00700928 1.72124084 -0.01401855 2.60794067 -0.02124023 C5.45192769 -0.03884055 8.29491893 -0.02718933 11.13891602 -0.01367188 C13.11662487 -0.01636645 15.09433243 -0.02024859 17.07203674 -0.02526855 C21.21726086 -0.03116657 25.36214019 -0.02259173 29.50732422 -0.00390625 C34.81830811 0.01886847 40.1284828 0.00577139 45.43943691 -0.01819611 C49.52385033 -0.03265855 53.60807231 -0.02804576 57.69249153 -0.01768494 C59.65049396 -0.01501812 61.60851382 -0.01828583 63.5664959 -0.02760315 C66.30521458 -0.03777435 69.04262838 -0.02225924 71.78125 0 C72.58920517 -0.00809692 73.39716034 -0.01619385 74.229599 -0.02453613 C77.97282561 0.03176206 80.25348779 0.39587976 83.48622131 2.34509277 C85.45532227 4.51757812 85.45532227 4.51757812 85.63500977 7.79492188 C84.13795703 12.5190651 81.8073183 15.39260474 78.58032227 19.08007812 C77.38391245 20.49712114 76.18861783 21.91510639 74.99438477 23.33398438 C74.39529297 24.03797363 73.79620117 24.74196289 73.17895508 25.46728516 C70.69296544 28.42441561 68.32142516 31.46432941 65.95532227 34.51757812 C61.47565345 40.25946047 56.89570952 45.9145684 52.29125977 51.55664062 C48.80002047 55.84209549 45.35718155 60.16090919 41.95532227 64.51757812 C36.36978438 71.66952856 30.63863421 78.69980111 24.90649414 85.734375 C22.93584498 88.15591293 20.9736188 90.58402976 19.01782227 93.01757812 C18.46223633 93.70851563 17.90665039 94.39945312 17.33422852 95.11132812 C14.65653257 98.54056035 12.06581803 102.03691711 9.45532227 105.51757812 C29.91532227 105.51757812 50.37532227 105.51757812 71.45532227 105.51757812 C71.45532227 98.91757813 71.45532227 92.31757812 71.45532227 85.51757812 C75.45532227 81.51757812 75.45532227 81.51757812 78.45532227 81.01757812 C82.19730071 81.6412412 83.1472623 82.54658747 85.45532227 85.51757812 C86.18000183 89.6431109 86.07206372 93.75066722 86.03173828 97.93481445 C86.01788128 99.94651111 86.05193442 101.95354069 86.09008789 103.96484375 C86.0881543 105.23908203 86.0862207 106.51332031 86.08422852 107.82617188 C86.08495361 108.98947021 86.08567871 110.15276855 86.08642578 111.35131836 C85.24094149 115.59313103 83.85349398 116.86761757 80.45532227 119.51757812 C77.55872151 120.23082566 74.75293522 120.19168593 71.78125 120.14868164 C70.91887726 120.15583694 70.05650452 120.16299225 69.16799927 120.17036438 C66.32442867 120.1872397 63.48243708 120.16785763 60.63891602 120.14648438 C58.66024139 120.14731311 56.68156683 120.14977264 54.70289612 120.15379333 C50.55936928 120.15665044 46.41638327 120.14195719 42.27294922 120.11450195 C36.96074776 120.08039717 31.64951193 120.08644568 26.33726406 120.10516453 C22.25287317 120.11572985 18.16870721 120.10680131 14.08433723 120.09177971 C12.12551605 120.0865955 10.16667141 120.08708258 8.20785332 120.09332466 C5.47138769 120.09877207 2.73630774 120.07841825 0 120.05102539 C-0.8099794 120.05755127 -1.6199588 120.06407715 -2.45448303 120.07080078 C-6.03476039 120.00982488 -8.12910807 119.82721194 -11.04039001 117.6580658 C-12.54467773 115.51757812 -12.54467773 115.51757812 -13.15795898 112.73632812 C-12.27323189 108.0929197 -9.7970633 105.51346322 -6.73217773 102.01757812 C-5.5266468 100.59142715 -4.32223757 99.16432731 -3.11889648 97.73632812 C-2.51352051 97.02605469 -1.90814453 96.31578125 -1.28442383 95.58398438 C1.2087164 92.62272435 3.58503909 89.57737417 5.95532227 86.51757812 C10.43487788 80.77560975 15.01493735 75.12058499 19.61938477 69.47851562 C23.11062309 65.19306194 26.55351115 60.87428359 29.95532227 56.51757812 C33.89727302 51.46911488 37.9056394 46.48001643 41.95532227 41.51757812 C48.93303686 32.96505372 55.83204869 24.34860955 62.45532227 15.51757812 C32.26032227 15.02257812 32.26032227 15.02257812 1.45532227 14.51757812 C1.45532227 20.78757812 1.45532227 27.05757812 1.45532227 33.51757812 C-0.54467773 37.51757812 -0.54467773 37.51757812 -2.54467773 38.51757812 C-5.98217773 38.83007812 -5.98217773 38.83007812 -9.54467773 38.51757812 C-12.01172293 36.19866221 -12.51503182 34.74829677 -12.94873047 31.37304688 C-12.958479 30.16261719 -12.96822754 28.9521875 -12.97827148 27.70507812 C-12.98351334 27.05434326 -12.98875519 26.4036084 -12.99415588 25.7331543 C-13.00056056 24.36150536 -12.99925915 22.98980139 -12.99072266 21.61816406 C-12.98220281 19.52374291 -13.01100248 17.43204316 -13.04272461 15.33789062 C-13.04433666 14.00195394 -13.04375902 12.66601244 -13.04077148 11.33007812 C-13.04262451 10.11964844 -13.04447754 8.90921875 -13.04638672 7.66210938 C-11.84615533 0.13949121 -6.60441545 -0.06602075 0 0 Z " fill="#010101" transform="translate(394.544677734375,31.482421875)"/>
<path d="M0 0 C3.375 0.875 3.375 0.875 5.375 2.875 C5.5769355 5.60322294 5.65501978 8.23171391 5.64624023 10.96142578 C5.65146698 11.79742813 5.65669373 12.63343048 5.66207886 13.49476624 C5.67233717 15.31448611 5.67810244 17.13423547 5.67996025 18.95398331 C5.6836163 21.83810408 5.70032456 24.72187859 5.72071838 27.60592651 C5.77618606 35.80753116 5.80674221 44.00918837 5.83129883 52.2109375 C5.84721895 57.22542254 5.87749242 62.23966532 5.91606331 67.25402451 C5.9276824 69.16207166 5.93364339 71.07016226 5.93374443 72.97824478 C5.93393757 75.65648729 5.95228544 78.33406789 5.97436523 81.01220703 C5.96978806 81.79381699 5.96521088 82.57542694 5.960495 83.38072205 C6.03497759 89.09469537 6.79761769 95.0241322 10.79140377 99.44169807 C14.64924661 102.78114679 17.74328933 103.991992 22.7512207 104.03613281 C23.6325618 104.04574036 24.51390289 104.0553479 25.42195129 104.06524658 C26.37196518 104.06949646 27.32197906 104.07374634 28.30078125 104.078125 C29.28112839 104.08382507 30.26147552 104.08952515 31.27153015 104.09539795 C33.34694337 104.10484604 35.42237158 104.11138117 37.49780273 104.11523438 C40.66481884 104.12493056 43.83118335 104.15595213 46.99804688 104.1875 C49.01562115 104.19403121 51.03320006 104.19928122 53.05078125 104.203125 C53.99472244 104.2154718 54.93866364 104.2278186 55.91120911 104.24053955 C61.89267496 104.22038798 66.4105015 103.57896062 71.01953125 99.375 C75.19638953 94.01074054 75.52117521 90.11818787 75.5168457 83.51977539 C75.52205734 82.24128471 75.52205734 82.24128471 75.52737427 80.93696594 C75.53472726 79.08559382 75.54007508 77.23421291 75.54366493 75.38282967 C75.55082788 72.45358742 75.56649221 69.52451293 75.58500671 66.59532166 C75.63749161 58.2667772 75.68547768 49.93832551 75.70092773 41.60961914 C75.71099642 36.51611938 75.74029007 31.42304276 75.78224754 26.32971001 C75.79457592 24.38766108 75.79967546 22.44555244 75.79744911 20.50346565 C75.79510204 17.78838883 75.81721574 15.07453142 75.8449707 12.35961914 C75.83506859 11.15396301 75.83506859 11.15396301 75.82496643 9.9239502 C75.88457356 6.37836129 76.09622252 4.26461556 78.18547058 1.3447113 C80.375 -0.125 80.375 -0.125 83.9375 -0.125 C87.375 0.875 87.375 0.875 89.06558228 2.41989136 C90.93806786 5.93073091 90.79327634 9.27454976 90.76318359 13.15673828 C90.76844055 13.9898201 90.77369751 14.82290192 90.77911377 15.68122864 C90.79231845 18.436114 90.78356927 21.19042119 90.7734375 23.9453125 C90.77545925 25.86620189 90.77837153 27.78709053 90.78213501 29.70797729 C90.78655995 33.73800957 90.78012605 37.76784247 90.76611328 41.79785156 C90.74909037 46.94231776 90.75881761 52.08631201 90.77683067 57.23076057 C90.78772298 61.20125822 90.7841961 65.17164592 90.7764473 69.14214706 C90.77445672 71.03740368 90.77686409 72.93267054 90.78388596 74.82791519 C90.8241241 88.75149167 90.70932584 100.40047982 80.375 110.875 C71.80994624 118.17405129 62.79950437 119.18036954 51.85546875 119.28125 C50.38573357 119.29835022 50.38573357 119.29835022 48.88630676 119.3157959 C46.82488243 119.3345789 44.76339963 119.34771695 42.7019043 119.35546875 C39.58078446 119.37488625 36.46230078 119.43703405 33.34179688 119.5 C20.5244585 119.63474265 11.6224694 118.88885759 1.4375 110.4375 C0.4165625 109.1690625 0.4165625 109.1690625 -0.625 107.875 C-1.28242188 107.07255859 -1.28242188 107.07255859 -1.953125 106.25390625 C-7.11218262 99.59753593 -7.92470284 93.08313765 -7.91552734 84.88208008 C-7.92224457 84.00966171 -7.92896179 83.13724335 -7.93588257 82.23838806 C-7.95477948 79.37371023 -7.95878156 76.5092674 -7.9609375 73.64453125 C-7.96736768 71.64629522 -7.9740962 69.64806012 -7.98110962 67.64982605 C-7.993059 63.47136245 -7.9967925 59.29298142 -7.99560547 55.11450195 C-7.9954016 49.75760707 -8.02278398 44.40123867 -8.05714989 39.04446888 C-8.0793626 34.92239438 -8.08344486 30.80044816 -8.08238602 26.67831993 C-8.08474738 24.70272685 -8.0936009 22.72713053 -8.10905075 20.75159645 C-8.12861101 17.9939301 -8.12291381 15.23742064 -8.11083984 12.47973633 C-8.12207886 11.66354828 -8.13331787 10.84736023 -8.14489746 10.00643921 C-8.10505675 6.43194294 -7.91433164 4.28331804 -5.82119751 1.32939148 C-3.625 -0.125 -3.625 -0.125 0 0 Z " fill="#010102" transform="translate(156.625,32.125)"/>
<path d="M0 0 C0.77442444 -0.00619858 1.54884888 -0.01239716 2.34674072 -0.01878357 C3.98407742 -0.02587709 5.6214863 -0.02271575 7.25878906 -0.01000977 C9.74421909 0.00378742 12.22582944 -0.03013074 14.7109375 -0.06835938 C29.04756658 -0.13844679 29.04756658 -0.13844679 34.66918945 4.19335938 C41.26546554 10.92000611 41.28188006 17.161031 41.25390625 26.140625 C40.96267717 30.32763976 39.86804557 32.86156512 38.015625 36.56640625 C38.23020065 38.99826367 38.98429571 40.50148434 40.04296875 42.6953125 C42.33955009 49.47437791 42.3847872 59.68597634 39.453125 66.25390625 C36.54054118 70.95564871 32.18809089 73.84225095 27.015625 75.56640625 C24.39203957 75.67511331 21.79580007 75.73043276 19.171875 75.734375 C18.40637329 75.7377034 17.64087158 75.7410318 16.85217285 75.74446106 C15.23495077 75.74951977 13.61771827 75.75186971 12.00048828 75.75170898 C9.52489093 75.75389806 7.04973743 75.77207158 4.57421875 75.79101562 C3.00260569 75.79394923 1.43099052 75.79593425 -0.140625 75.796875 C-0.88131226 75.80406052 -1.62199951 75.81124603 -2.38513184 75.81864929 C-6.13592513 75.80194471 -7.78194785 75.70135768 -10.984375 73.56640625 C-12.09118779 70.24596787 -12.1315273 67.72913794 -12.16137695 64.23071289 C-12.17421219 62.92248062 -12.18704742 61.61424835 -12.20027161 60.26637268 C-12.20843768 58.8364398 -12.21588166 57.40650265 -12.22265625 55.9765625 C-12.22673178 55.25615721 -12.2308073 54.53575191 -12.23500633 53.79351616 C-12.25584395 49.98287113 -12.27015748 46.1722619 -12.27954102 42.36157227 C-12.29062096 38.42595724 -12.32504481 34.4909052 -12.36471272 30.55548954 C-12.39084608 27.52801965 -12.39922971 24.50068487 -12.40282249 21.47311211 C-12.40769439 20.02222311 -12.41932569 18.57134038 -12.43786049 17.1205616 C-12.46218484 15.09101077 -12.45887374 13.06118568 -12.4543457 11.03149414 C-12.46021194 9.87694229 -12.46607819 8.72239044 -12.47212219 7.53285217 C-11.29896572 0.39779268 -6.27278065 -0.04194629 0 0 Z " fill="#000101" transform="translate(57.984375,401.43359375)"/>
<path d="M0 0 C1.02846039 -0.00574036 1.02846039 -0.00574036 2.07769775 -0.01159668 C3.52674835 -0.01431311 4.9758482 -0.00697043 6.42480469 0.00976562 C8.62028284 0.03105276 10.81244012 0.01002879 13.0078125 -0.015625 C21.57430206 -0.03357936 28.09820436 0.40732025 34.87890625 6.2421875 C35.31589844 6.79132813 35.75289063 7.34046875 36.203125 7.90625 C36.65300781 8.45023437 37.10289062 8.99421875 37.56640625 9.5546875 C41.35329771 15.20709776 42.34132591 19.46919713 42.2890625 26.11328125 C42.29193268 26.92689621 42.29480286 27.74051117 42.29776001 28.57878113 C42.29979383 30.2941457 42.29431181 32.00953382 42.28173828 33.72485352 C42.26573684 36.32557185 42.28157722 38.92472151 42.30078125 41.52539062 C42.29879748 43.20052421 42.29495104 44.87565684 42.2890625 46.55078125 C42.29817154 47.69967583 42.29817154 47.69967583 42.3074646 48.8717804 C42.21507651 56.10869998 40.61987392 63.37052793 35.703125 68.90625 C35.17332031 69.53273438 34.64351563 70.15921875 34.09765625 70.8046875 C26.97999265 76.37284203 18.89931075 76.03048647 10.26220703 75.97729492 C8.13087579 75.96871073 6.00216624 75.99773449 3.87109375 76.02929688 C2.5078133 76.03090749 1.14452813 76.03033403 -0.21875 76.02734375 C-1.44561523 76.02919678 -2.67248047 76.0310498 -3.93652344 76.03295898 C-7.80823135 75.42074294 -8.74047192 74.60203788 -11.109375 71.53125 C-11.61730957 68.53356934 -11.61730957 68.53356934 -11.62695312 64.99023438 C-11.6339624 64.34258621 -11.64097168 63.69493805 -11.64819336 63.02766418 C-11.66575726 60.89300288 -11.6541582 58.75967409 -11.640625 56.625 C-11.64332042 55.13814032 -11.64720327 53.65128236 -11.65222168 52.16442871 C-11.65811448 49.05069164 -11.64956147 45.93741406 -11.63085938 42.82373047 C-11.60806915 38.83533912 -11.62119351 34.84802441 -11.64514923 30.85967255 C-11.65961358 27.79009917 -11.65499848 24.72078045 -11.64463806 21.65119934 C-11.6419725 20.18081026 -11.64523461 18.71039796 -11.65455627 17.24003601 C-11.66473335 15.18349099 -11.64920902 13.12868157 -11.62695312 11.07226562 C-11.62377075 9.90296509 -11.62058838 8.73366455 -11.61730957 7.52893066 C-10.46511192 0.72899853 -6.19721598 0.02203734 0 0 Z " fill="#010101" transform="translate(326.109375,401.46875)"/>
<path d="M0 0 C27.72 0 55.44 0 84 0 C84 14.19 84 28.38 84 43 C56.28 43 28.56 43 0 43 C0 28.81 0 14.62 0 0 Z " fill="#454D52" transform="translate(414,418)"/>
<path d="M0 0 C27.72 0 55.44 0 84 0 C84 14.19 84 28.38 84 43 C56.28 43 28.56 43 0 43 C0 28.81 0 14.62 0 0 Z " fill="#454D52" transform="translate(145,418)"/>
<path d="M0 0 C27.72 0 55.44 0 84 0 C84 13.86 84 27.72 84 42 C56.28 42 28.56 42 0 42 C0 28.14 0 14.28 0 0 Z " fill="#464E53" transform="translate(414,253)"/>
<path d="M0 0 C27.72 0 55.44 0 84 0 C84 13.86 84 27.72 84 42 C56.28 42 28.56 42 0 42 C0 28.14 0 14.28 0 0 Z " fill="#464E53" transform="translate(145,253)"/>
<path d="M0 0 C0.83490967 0.01168213 1.66981934 0.02336426 2.5300293 0.03540039 C9.0650333 0.26913458 14.53861423 1.14751715 19.625 5.5625 C24.54285454 11.27290134 26.71990366 16.20648957 26.80200195 23.71069336 C26.82125481 25.24765114 26.82125481 25.24765114 26.84089661 26.81565857 C26.84828354 27.91676468 26.85567047 29.01787079 26.86328125 30.15234375 C26.871353 31.28901993 26.87942474 32.42569611 26.88774109 33.59681702 C26.90156377 35.99999472 26.91229403 38.40319192 26.92016602 40.80639648 C26.93741851 44.4826349 26.98132686 48.15798311 27.02539062 51.83398438 C27.03551445 54.16926423 27.04403152 56.50455171 27.05078125 58.83984375 C27.06828934 59.93892563 27.08579742 61.03800751 27.10383606 62.1703949 C27.08221857 69.76490694 27.08221857 69.76490694 24.78979492 73.76391602 C22.625 75.5625 22.625 75.5625 19.5625 76.0625 C16.40214383 75.52456703 15.4805936 75.10173335 13.625 72.5625 C12.45073736 70.21397472 12.50991827 68.82475935 12.52734375 66.2109375 C12.52984131 65.44442871 12.53233887 64.67791992 12.53491211 63.88818359 C12.54401611 62.91445801 12.55312012 61.94073242 12.5625 60.9375 C12.583125 57.84375 12.60375 54.75 12.625 51.5625 C4.375 51.5625 -3.875 51.5625 -12.375 51.5625 C-12.21743549 57.59095259 -12.21743549 57.59095259 -12.01464844 63.61791992 C-11.96034848 67.74340283 -12.05356267 70.01942922 -14.19921875 73.64453125 C-16.375 75.5625 -16.375 75.5625 -19.4375 76.0625 C-22.59785617 75.52456703 -23.5194064 75.10173335 -25.375 72.5625 C-26.617241 70.078018 -26.5220286 68.37694699 -26.55200195 65.59716797 C-26.56483719 64.56204071 -26.57767242 63.52691345 -26.59089661 62.4604187 C-26.59828354 61.3365274 -26.60567047 60.21263611 -26.61328125 59.0546875 C-26.621353 57.9001004 -26.62942474 56.74551331 -26.63774109 55.55593872 C-26.65159353 53.10631822 -26.66231047 50.65667832 -26.67016602 48.20703125 C-26.68733408 44.47358113 -26.73120619 40.74102663 -26.77539062 37.0078125 C-26.78552132 34.62761068 -26.79403624 32.24740132 -26.80078125 29.8671875 C-26.81828934 28.75544159 -26.83579742 27.64369568 -26.85383606 26.4982605 C-26.83122812 18.35294152 -25.27982818 13.11284555 -20.125 6.8125 C-13.81809935 1.65230856 -8.10239041 -0.15105736 0 0 Z " fill="#010100" transform="translate(72.375,236.4375)"/>
<path d="M0 0 C1.3096875 -0.01998047 2.619375 -0.03996094 3.96875 -0.06054688 C5.22945313 -0.05990234 6.49015625 -0.05925781 7.7890625 -0.05859375 C8.9332666 -0.06044678 10.0774707 -0.0622998 11.25634766 -0.06420898 C15.03708838 0.54401257 16.70841562 1.72952807 19.375 4.4375 C19.9375 7.4375 19.9375 7.4375 19.375 10.4375 C17.18975732 13.31312812 16.01104574 14.32705208 12.4140625 14.95166016 C11.28742188 14.95987793 10.16078125 14.9680957 9 14.9765625 C7.76765625 14.99976563 6.5353125 15.02296875 5.265625 15.046875 C3.33976562 15.05460938 3.33976562 15.05460938 1.375 15.0625 C-1.16676401 15.08801972 -3.70846381 15.12152633 -6.25 15.1640625 C-7.93996094 15.17300537 -7.93996094 15.17300537 -9.6640625 15.18212891 C-12.61145812 15.43633206 -14.2315223 15.72835656 -16.625 17.4375 C-19.28088646 20.96654738 -18.94801063 25.07299735 -18.9609375 29.30859375 C-18.9675943 30.06793716 -18.9742511 30.82728058 -18.98110962 31.6096344 C-18.99121487 33.21246933 -18.9959273 34.81534614 -18.99560547 36.41821289 C-18.99997943 38.86350101 -19.03631988 41.30698404 -19.07421875 43.75195312 C-19.08008736 45.31249385 -19.08405646 46.87304312 -19.0859375 48.43359375 C-19.10030853 49.16082138 -19.11467957 49.88804901 -19.12948608 50.63731384 C-19.09842687 54.10722841 -18.67734384 56.34163759 -17.00610352 59.40234375 C-13.88244836 62.07216733 -12.14182233 62.03809172 -8.06640625 62.00390625 C-6.15698242 62.0203418 -6.15698242 62.0203418 -4.20898438 62.03710938 C-2.86846963 62.0271336 -1.52797081 62.01474113 -0.1875 62 C2.43757191 61.97805283 5.05800645 61.98398525 7.68359375 62.00390625 C8.84689209 61.99302979 10.01019043 61.98215332 11.20874023 61.97094727 C15.04050039 62.5355624 16.68579169 63.69308709 19.375 66.4375 C19.9375 69.4375 19.9375 69.4375 19.375 72.4375 C17.1102376 75.50445264 15.91803439 76.3514072 12.11035156 76.95507812 C10.20721191 76.9618457 10.20721191 76.9618457 8.265625 76.96875 C7.57998474 76.9725769 6.89434448 76.97640381 6.18792725 76.98034668 C4.73887665 76.98306311 3.2897768 76.97572043 1.84082031 76.95898438 C-0.35465784 76.93769724 -2.54681512 76.95872121 -4.7421875 76.984375 C-13.32350473 77.00248292 -19.90872628 76.58927764 -26.6484375 70.65625 C-27.31746094 69.80546875 -27.31746094 69.80546875 -28 68.9375 C-28.69222656 68.08671875 -28.69222656 68.08671875 -29.3984375 67.21875 C-31.75557395 63.79564739 -32.8733234 61.16262341 -32.93139648 56.97949219 C-32.94738388 56.10468201 -32.96337128 55.22987183 -32.97984314 54.32855225 C-32.98520584 53.38997375 -32.99056854 52.45139526 -32.99609375 51.484375 C-33.00512222 50.51018616 -33.0141507 49.53599731 -33.02345276 48.5322876 C-33.03795177 46.47126332 -33.04684113 44.41019305 -33.05053711 42.34912109 C-33.06240573 39.21241544 -33.11157178 36.07769525 -33.16210938 32.94140625 C-33.1715774 30.93490539 -33.17881062 28.9283925 -33.18359375 26.921875 C-33.20312607 25.99139343 -33.22265839 25.06091187 -33.24278259 24.10223389 C-33.19356484 16.9158716 -31.15615139 12.17456918 -26.21751404 6.94793701 C-18.23213486 -0.25073597 -10.26766573 -0.05591303 0 0 Z " fill="#030302" transform="translate(345.625,235.5625)"/>
<path d="M0 0 C18 0 18 0 24 4 C25.56306827 7.12613655 25.18396478 10.46160623 25.203125 13.89453125 C25.20882507 14.6789006 25.21452515 15.46326996 25.22039795 16.27140808 C25.2298514 17.93328501 25.2363833 19.59518072 25.24023438 21.25708008 C25.24992229 23.79216538 25.28093404 26.32643379 25.3125 28.86132812 C25.31903197 30.47655769 25.32428168 32.09179305 25.328125 33.70703125 C25.3404718 34.46240677 25.3528186 35.21778229 25.36553955 35.99604797 C25.34657434 40.50757169 24.89323446 43.47575944 22 47 C18 49 18 49 0 49 C0 32.83 0 16.66 0 0 Z " fill="#94D93D" transform="translate(329,415)"/>
<path d="M0 0 C1.13050781 -0.03738281 2.26101562 -0.07476562 3.42578125 -0.11328125 C7.33054057 0.39644182 8.90898129 1.58459183 11.6875 4.3125 C12.8357685 6.609037 12.80311175 7.89563167 12.78515625 10.4453125 C12.78265869 11.17121582 12.78016113 11.89711914 12.77758789 12.64501953 C12.76848389 13.56653809 12.75937988 14.48805664 12.75 15.4375 C12.729375 18.36625 12.70875 21.295 12.6875 24.3125 C4.4375 24.3125 -3.8125 24.3125 -12.3125 24.3125 C-12.395 21.445625 -12.4775 18.57875 -12.5625 15.625 C-12.59891602 14.73079346 -12.63533203 13.83658691 -12.67285156 12.9152832 C-12.72916694 8.86557155 -12.62491573 6.81146148 -10.421875 3.29296875 C-6.97197426 0.05389528 -4.66346784 0.10034642 0 0 Z " fill="#F9631C" transform="translate(72.3125,249.6875)"/>
<path d="M0 0 C1.19302734 -0.01998047 2.38605469 -0.03996094 3.61523438 -0.06054688 C4.76185547 -0.05990234 5.90847656 -0.05925781 7.08984375 -0.05859375 C8.13906006 -0.06044678 9.18827637 -0.0622998 10.26928711 -0.06420898 C13.74428129 0.55995962 14.89936265 1.70334715 17.0625 4.4375 C18.08359189 7.35490539 18.30308113 8.77127533 17.25 11.6875 C16.0625 13.4375 16.0625 13.4375 14.0625 14.4375 C9.42229756 14.73619012 4.77367924 14.71556534 0.125 14.75 C-1.17630859 14.77900391 -2.47761719 14.80800781 -3.81835938 14.83789062 C-5.06294922 14.84626953 -6.30753906 14.85464844 -7.58984375 14.86328125 C-8.73445068 14.87786377 -9.87905762 14.89244629 -11.05834961 14.9074707 C-13.9375 14.4375 -13.9375 14.4375 -15.84204102 12.63354492 C-17.50662469 9.296587 -16.83775227 6.97420536 -15.9375 3.4375 C-12.37199215 -1.62064812 -5.54105286 -0.03282261 0 0 Z " fill="#000102" transform="translate(422.9375,168.5625)"/>
<path d="M0 0 C3.60461295 -0.08076726 7.20742563 -0.14038951 10.8125 -0.1875 C12.34874023 -0.22520508 12.34874023 -0.22520508 13.91601562 -0.26367188 C15.39038086 -0.27817383 15.39038086 -0.27817383 16.89453125 -0.29296875 C18.25348511 -0.31653442 18.25348511 -0.31653442 19.63989258 -0.34057617 C22 0 22 0 23.79418945 1.3425293 C25.61529426 3.84576488 25.39743966 5.94820684 25.375 9 C25.38273437 10.051875 25.39046875 11.10375 25.3984375 12.1875 C25 15 25 15 23.79418945 16.6574707 C21.38703095 18.45866333 19.87971978 18.34473503 16.89453125 18.29296875 C15.91162109 18.28330078 14.92871094 18.27363281 13.91601562 18.26367188 C12.89185547 18.23853516 11.86769531 18.21339844 10.8125 18.1875 C9.77673828 18.17396484 8.74097656 18.16042969 7.67382812 18.14648438 C5.11566388 18.11111805 2.55776671 18.05731096 0 18 C0 12.06 0 6.12 0 0 Z " fill="#68A1F0" transform="translate(60,446)"/>
<path d="M0 0 C3.60461295 -0.08076726 7.20742563 -0.14038951 10.8125 -0.1875 C12.34874023 -0.22520508 12.34874023 -0.22520508 13.91601562 -0.26367188 C15.39038086 -0.27817383 15.39038086 -0.27817383 16.89453125 -0.29296875 C18.25348511 -0.31653442 18.25348511 -0.31653442 19.63989258 -0.34057617 C22 0 22 0 23.79418945 1.3425293 C25.61529426 3.84576488 25.39743966 5.94820684 25.375 9 C25.38273437 10.051875 25.39046875 11.10375 25.3984375 12.1875 C25 15 25 15 23.79418945 16.6574707 C21.38703095 18.45866333 19.87971978 18.34473503 16.89453125 18.29296875 C15.91162109 18.28330078 14.92871094 18.27363281 13.91601562 18.26367188 C12.89185547 18.23853516 11.86769531 18.21339844 10.8125 18.1875 C9.77673828 18.17396484 8.74097656 18.16042969 7.67382812 18.14648438 C5.11566388 18.11111805 2.55776671 18.05731096 0 18 C0 12.06 0 6.12 0 0 Z " fill="#68A1F0" transform="translate(60,415)"/>
</svg>
